<svg xmlns="http://www.w3.org/2000/svg" width="335" height="315.53" viewBox="0 0 335 315.53">
  <g id="Grupo_895919" data-name="Grupo 895919" transform="translate(-370 -854.859)">
    <g id="Accept_terms-cuate" data-name="Accept terms-cuate" transform="translate(334.576 802.019)">
      <g id="freepik--background-complete--inject-172" transform="translate(35.424 58.912)">
        <path id="Trazado_664782" data-name="Trazado 664782" d="M60.664,75.477l9.668-.206,4.908-.081H80.5v.332l.044,8.246v.368h-.368l-9.734-.088c-3.257,0-6.507-.081-9.756-.118H60.48v-.2c0-1.4.066-2.785.1-4.163Zm0,0,.1,4.171c0,1.371.081,2.726.1,4.075l-.2-.2c3.25,0,6.5-.118,9.756-.118l9.756-.052-.368.368.037-8.246.332.332c-1.628-.022-3.213-.022-4.826-.022L70.5,75.706Z" transform="translate(-47.371 -64.793)" fill="#ebebeb"/>
        <path id="Trazado_664783" data-name="Trazado 664783" d="M75.426,61.367l9.668-.206L90,61.08h5.261v.332l.044,8.246v.368h-.354l-9.771-.088c-3.257,0-6.507-.081-9.756-.118H75.22v-.2c0-1.4.066-2.785.1-4.163Zm0,0,.1,4.171c0,1.371.081,2.726.1,4.075l-.2-.2c3.25,0,6.5-.118,9.756-.118l9.771-.052-.368.368V61.367l.332.332c-1.606,0-3.213,0-4.826-.044l-4.849-.081Z" transform="translate(-51.25 -61.08)" fill="#ebebeb"/>
        <path id="Trazado_664784" data-name="Trazado 664784" d="M101.106,205.132l9.668-.177,4.908-.081c1.643,0,3.294,0,4.937-.044h.324v.332l.044,8.246v.368h-.368l-9.756-.052c-3.257,0-6.507-.081-9.756-.118H100.9v-.2c0-1.4.066-2.793.1-4.171Zm0,0,.1,4.163c0,1.371.081,2.734.1,4.082l-.2-.206c3.25-.037,6.5-.111,9.756-.118l9.756-.044-.368.368v-8.246l.332.324c-1.614,0-3.213,0-4.826-.037l-4.849-.081Z" transform="translate(-58.007 -87.36)" fill="#ebebeb"/>
        <path id="Trazado_664785" data-name="Trazado 664785" d="M115.926,191.012l9.668-.206,4.908-.081c1.643-.037,3.294,0,4.937-.044h.324v.332l.044,8.246v.368h-.368l-9.756-.052c-3.257,0-6.507-.081-9.756-.118h-.206v-.2c0-1.4.066-2.793.1-4.171Zm0,0,.1,4.163c0,1.371.081,2.734.1,4.082l-.2-.236c3.25,0,6.5-.11,9.756-.118l9.756-.044-.368.368v-8.246l.332.324h-4.826l-4.849-.081Z" transform="translate(-56.372 -84.773)" fill="#ebebeb"/>
        <path id="Trazado_664786" data-name="Trazado 664786" d="M45.916,61.367l9.675-.206L60.5,61.08H65.76v.332l.037,8.246v.368h-.376l-9.786-.088c-3.25,0-6.5-.081-9.756-.118h-.2v-.2c0-1.4.066-2.785.1-4.163Zm0,0,.111,4.171c0,1.371.081,2.726.1,4.075l-.206-.2c3.257,0,6.507-.118,9.756-.118l9.756-.052-.368.368.015-8.246.324.332c-1.606,0-3.205,0-4.819-.044l-4.849-.081Z" transform="translate(-43.477 -61.08)" fill="#ebebeb"/>
        <path id="Trazado_664787" data-name="Trazado 664787" d="M432.171,301.421l-9.668.2-4.907.088c-1.643,0-3.286,0-4.937.037h-.324v-.324l-.044-8.246V292.8h.368l9.756.044c3.257,0,6.507.081,9.756.118h.206v.2c0,1.393-.066,2.785-.1,4.163Zm0,0-.1-4.171c0-1.37-.081-2.726-.1-4.075l.2.2c-3.25.037-6.5.118-9.756.118l-9.756.052.368-.368-.037,8.245-.332-.332c1.614,0,3.213,0,4.826.037l4.849.088Z" transform="translate(-110.813 -103.442)" fill="#ebebeb"/>
        <path id="Trazado_664788" data-name="Trazado 664788" d="M446.951,315.531l-9.675.2-4.908.088c-1.643,0-3.286,0-4.93.037h-.332v-.324l-.037-8.246v-.376h.376l9.756.044c3.25,0,6.5.081,9.756.118h.2v.2c0,1.393-.066,2.785-.1,4.163Zm0,0-.111-4.134c0-1.371-.081-2.726-.1-4.075l.206.2c-3.257.037-6.507.118-9.756.118l-9.756.044.368-.361-.052,8.209-.324-.332h4.819l4.849.088Z" transform="translate(-114.702 -106.021)" fill="#ebebeb"/>
        <path id="Trazado_664789" data-name="Trazado 664789" d="M80.331,315.531l-9.668.2-4.908.088c-1.643,0-3.294,0-4.937.037h-.324v-.324l-.044-8.246v-.376h.405l9.756.044c3.257,0,6.507.081,9.756.118h.206v.2c0,1.393-.066,2.785-.1,4.163Zm0,0-.1-4.134c0-1.371-.081-2.726-.1-4.075l.2.2c-3.25.037-6.5.118-9.756.118l-9.719.007.368-.361-.037,8.246-.332-.332h4.826l4.849.088Z" transform="translate(-47.363 -106.021)" fill="#ebebeb"/>
        <path id="Trazado_664790" data-name="Trazado 664790" d="M412.609,61.367l9.675-.206,4.908-.081h5.261v.332l.037,8.246v.368h-.368l-9.756-.044c-3.25,0-6.507-.081-9.756-.118h-.2v-.2c0-1.4.059-2.785.1-4.163Zm0,0,.1,4.171c.037,1.371.088,2.726.1,4.075l-.2-.2c3.249,0,6.507-.118,9.756-.118l9.756-.052-.368.368.044-8.246.324.332c-1.606,0-3.213,0-4.819-.044l-4.878-.081Z" transform="translate(-110.845 -61.08)" fill="#ebebeb"/>
        <path id="Trazado_664791" data-name="Trazado 664791" d="M173.177,164.82H79.86V101h93.317Zm-92.58-.737H172.44V101.737H80.6Z" transform="translate(-52.471 -71.584)" fill="#ebebeb"/>
        <path id="Trazado_664792" data-name="Trazado 664792" d="M88.434,105.879a1.857,1.857,0,1,1-.536-1.327,1.857,1.857,0,0,1,.536,1.327Z" transform="translate(-53.75 -72.374)" fill="#a6a6a6"/>
        <path id="Trazado_664793" data-name="Trazado 664793" d="M98.729,105.879a1.857,1.857,0,1,1-.539-1.33A1.864,1.864,0,0,1,98.729,105.879Z" transform="translate(-56.454 -72.374)" fill="#ebebeb"/>
        <path id="Trazado_664794" data-name="Trazado 664794" d="M109.024,105.887a1.857,1.857,0,1,1-1.857-1.857A1.857,1.857,0,0,1,109.024,105.887Z" transform="translate(-59.167 -72.382)" fill="#a6a6a6"/>
        <rect id="Rectángulo_299292" data-name="Rectángulo 299292" width="92.58" height="0.737" transform="translate(27.758 36.777)" fill="#ebebeb"/>
        <rect id="Rectángulo_299293" data-name="Rectángulo 299293" width="31.147" height="31.147" transform="translate(295.751 22.342)" fill="#fff"/>
        <path id="Trazado_664795" data-name="Trazado 664795" d="M402.32,89.2v34.39h34.4V89.2Zm32.768,32.776H403.941V90.821h31.147Z" transform="translate(-108.19 -68.479)" fill="#ca7a1f"/>
        <rect id="Rectángulo_299294" data-name="Rectángulo 299294" width="10.766" height="24.28" transform="translate(324.651 40.727) rotate(90)" fill="#ebebeb"/>
        <rect id="Rectángulo_299295" data-name="Rectángulo 299295" width="12.438" height="12.438" transform="translate(317.541 31.7) rotate(90)" fill="#c7c7c7"/>
        <rect id="Rectángulo_299296" data-name="Rectángulo 299296" width="1.326" height="34.39" transform="translate(328.52 20.721)" fill="#c7c7c7"/>
        <rect id="Rectángulo_299297" data-name="Rectángulo 299297" width="31.147" height="31.147" transform="translate(295.751 74.585)" fill="#fff"/>
        <rect id="Rectángulo_299298" data-name="Rectángulo 299298" width="8.135" height="23.499" transform="translate(301.101 79.869)" fill="#c7c7c7"/>
        <path id="Trazado_664796" data-name="Trazado 664796" d="M402.32,149.23v34.39h34.4V149.23ZM435.088,182H403.941V150.851h31.147Z" transform="translate(-108.19 -76.341)" fill="#ca7a1f"/>
        <rect id="Rectángulo_299299" data-name="Rectángulo 299299" width="12.438" height="12.438" transform="translate(305.102 84.327)" fill="#ebebeb"/>
        <rect id="Rectángulo_299300" data-name="Rectángulo 299300" width="1.326" height="34.39" transform="translate(328.52 72.889)" fill="#c7c7c7"/>
        <rect id="Rectángulo_299301" data-name="Rectángulo 299301" width="31.147" height="31.147" transform="translate(295.751 124.132)" fill="#fff"/>
        <rect id="Rectángulo_299302" data-name="Rectángulo 299302" width="17.095" height="10.22" transform="translate(299.207 127.655)" fill="#ebebeb"/>
        <path id="Trazado_664797" data-name="Trazado 664797" d="M402.32,209.25v34.39h34.4V209.25Zm32.768,32.768H403.941V210.871h31.147Z" transform="translate(-108.19 -86.732)" fill="#ca7a1f"/>
        <rect id="Rectángulo_299303" data-name="Rectángulo 299303" width="12.438" height="12.438" transform="translate(305.102 133.455)" fill="#c7c7c7"/>
        <rect id="Rectángulo_299304" data-name="Rectángulo 299304" width="1.326" height="34.39" transform="translate(328.52 122.518)" fill="#c7c7c7"/>
        <rect id="Rectángulo_299305" data-name="Rectángulo 299305" width="69.42" height="103.441" transform="translate(3.36 167.567)" fill="#ca7a1f" opacity="0.17"/>
        <rect id="Rectángulo_299306" data-name="Rectángulo 299306" width="76.148" height="3.566" transform="translate(0 167.542)" fill="#ca7a1f" opacity="0.5"/>
        <rect id="Rectángulo_299307" data-name="Rectángulo 299307" width="23.948" height="3.566" transform="translate(84.088 152.977)" fill="#ebebeb"/>
        <rect id="Rectángulo_299308" data-name="Rectángulo 299308" width="23.521" height="103.441" transform="translate(80.366 167.567)" fill="#dbdbdb"/>
        <path id="Trazado_664798" data-name="Trazado 664798" d="M111.874,302.881H57.39v-30.8h54.484Zm-54.3-.184H111.69V272.264H57.574Z" transform="translate(-46.558 -97.927)" fill="#c7c7c7"/>
        <rect id="Rectángulo_299309" data-name="Rectángulo 299309" width="10.604" height="6.094" transform="translate(30.469 182.206)" fill="#c7c7c7"/>
        <path id="Trazado_664799" data-name="Trazado 664799" d="M98.958,290.164H88.17V284.8H98.958Zm-10.6-.184H98.773v-5H88.354Z" transform="translate(-54.657 -102.248)" fill="#c7c7c7"/>
        <path id="Trazado_664800" data-name="Trazado 664800" d="M111.874,355.371H57.39v-30.8h54.484Zm-54.3-.184H111.69V324.754H57.574Z" transform="translate(-46.558 -104.656)" fill="#c7c7c7"/>
        <rect id="Rectángulo_299310" data-name="Rectángulo 299310" width="10.604" height="6.094" transform="translate(30.469 228.919)" fill="#c7c7c7"/>
        <path id="Trazado_664801" data-name="Trazado 664801" d="M98.958,342.654H88.17V337.29H98.958Zm-10.6-.184H98.773v-5H88.354Z" transform="translate(-54.657 -108.003)" fill="#c7c7c7"/>
      </g>
      <g id="freepik--Shadow--inject-172" transform="translate(44.605 331.114)" opacity="0.2">
        <ellipse id="Elipse_7494" data-name="Elipse 7494" cx="158.144" cy="18.628" rx="158.144" ry="18.628" fill="#0b5999"/>
      </g>
      <g id="freepik--Device--inject-172" transform="translate(110.445 52.84)">
        <rect id="Rectángulo_299312" data-name="Rectángulo 299312" width="301.574" height="184.534" rx="12.89" transform="translate(184.534) rotate(90)" fill="#263238"/>
        <rect id="Rectángulo_299313" data-name="Rectángulo 299313" width="168.75" height="263.131" transform="translate(7.995 19.306)" fill="#fff"/>
        <rect id="Rectángulo_299314" data-name="Rectángulo 299314" width="2.866" height="40.159" rx="1.25" transform="translate(112.335 9.771) rotate(90)" fill="#37474f"/>
        <circle id="Elipse_7495" data-name="Elipse 7495" cx="5.195" cy="5.195" r="5.195" transform="translate(87.068 286.571)" fill="#37474f"/>
        <rect id="Rectángulo_299315" data-name="Rectángulo 299315" width="168.75" height="263.131" transform="translate(7.995 19.306)" fill="#fff"/>
        <rect id="Rectángulo_299316" data-name="Rectángulo 299316" width="168.75" height="5.799" transform="translate(7.995 19.306)" fill="#455a64"/>
        <path id="Trazado_664836" data-name="Trazado 664836" d="M140.7,82.474A1.474,1.474,0,1,1,139.261,81,1.474,1.474,0,0,1,140.7,82.474Z" transform="translate(-128.2 -60.25)" fill="#c7c7c7"/>
        <path id="Trazado_664837" data-name="Trazado 664837" d="M148.667,82.474A1.474,1.474,0,1,1,147.231,81,1.474,1.474,0,0,1,148.667,82.474Z" transform="translate(-130.297 -60.25)" fill="#fff"/>
        <path id="Trazado_664838" data-name="Trazado 664838" d="M156.637,82.474A1.474,1.474,0,1,1,155.164,81,1.474,1.474,0,0,1,156.637,82.474Z" transform="translate(-132.395 -60.25)" fill="#4db5e1"/>
        <path id="Trazado_664866" data-name="Trazado 664866" d="M178.53,367.624V362.51h1.864a2.837,2.837,0,0,1,1.1.2,2.211,2.211,0,0,1,.789.553,2.122,2.122,0,0,1,.472.811,2.888,2.888,0,0,1,.162.987,2.947,2.947,0,0,1-.177,1.054,2.211,2.211,0,0,1-1.3,1.326,2.749,2.749,0,0,1-1.039.184Zm3.382-2.564a2.211,2.211,0,0,0-.1-.678,1.474,1.474,0,0,0-.295-.531,1.2,1.2,0,0,0-.479-.346,1.627,1.627,0,0,0-.641-.125h-.87v3.375h.87a1.526,1.526,0,0,0,.648-.133,1.268,1.268,0,0,0,.479-.354,1.636,1.636,0,0,0,.287-.538,2.167,2.167,0,0,0,.1-.648Z" transform="translate(-138.931 -108.567)" fill="#4db5e1"/>
        <path id="Trazado_664867" data-name="Trazado 664867" d="M189.092,366.754v.87H185.54V362.51h3.485v.87h-2.491v1.231h2.152v.811h-2.152v1.334Z" transform="translate(-140.775 -108.567)" fill="#4db5e1"/>
        <path id="Trazado_664868" data-name="Trazado 664868" d="M190.85,365.019a2.748,2.748,0,0,1,.169-.928,2.586,2.586,0,0,1,.494-.818,2.476,2.476,0,0,1,.8-.582,2.44,2.44,0,0,1,1.061-.221,2.321,2.321,0,0,1,1.223.31,1.908,1.908,0,0,1,.737.8l-.737.531a1.35,1.35,0,0,0-.251-.368,1.289,1.289,0,0,0-.309-.228,1.149,1.149,0,0,0-.346-.125,1.474,1.474,0,0,0-.354-.044,1.318,1.318,0,0,0-.648.155,1.4,1.4,0,0,0-.464.39,1.8,1.8,0,0,0-.273.545,2,2,0,0,0,0,1.267,1.577,1.577,0,0,0,.3.545,1.474,1.474,0,0,0,.479.383,1.283,1.283,0,0,0,.6.147,1.565,1.565,0,0,0,.361-.044,1.355,1.355,0,0,0,.361-.14,1.328,1.328,0,0,0,.309-.236A1.223,1.223,0,0,0,194.6,366l.811.472a1.6,1.6,0,0,1-.346.508,2.122,2.122,0,0,1-.516.368,2.859,2.859,0,0,1-.6.236,2.765,2.765,0,0,1-.641.074,2.211,2.211,0,0,1-1-.228,2.616,2.616,0,0,1-.781-.6,2.846,2.846,0,0,1-.508-.84,2.579,2.579,0,0,1-.162-.965Z" transform="translate(-142.172 -108.556)" fill="#4db5e1"/>
        <path id="Trazado_664869" data-name="Trazado 664869" d="M198,367.624V362.51h.995v4.244H201.6v.87Z" transform="translate(-144.054 -108.567)" fill="#4db5e1"/>
        <path id="Trazado_664870" data-name="Trazado 664870" d="M203.7,367.624V362.51h.995v5.114Z" transform="translate(-145.554 -108.567)" fill="#4db5e1"/>
        <path id="Trazado_664871" data-name="Trazado 664871" d="M207.485,364.345v3.279h-.995V362.51h.737l2.667,3.36v-3.353h.995v5.106h-.8Z" transform="translate(-146.288 -108.567)" fill="#4db5e1"/>
        <path id="Trazado_664872" data-name="Trazado 664872" d="M217.522,366.754v.87H214V362.51h3.485v.87h-2.491v1.231h2.152v.811h-2.152v1.334Z" transform="translate(-148.264 -108.567)" fill="#4db5e1"/>
        <rect id="Rectángulo_299317" data-name="Rectángulo 299317" width="138.767" height="1.584" transform="translate(23.012 93.255)" fill="#ebebeb"/>
        <rect id="Rectángulo_299318" data-name="Rectángulo 299318" width="138.767" height="1.584" transform="translate(23.012 97.688)" fill="#ebebeb"/>
        <rect id="Rectángulo_299319" data-name="Rectángulo 299319" width="138.767" height="1.584" transform="translate(23.012 102.13)" fill="#ebebeb"/>
        <rect id="Rectángulo_299320" data-name="Rectángulo 299320" width="138.767" height="1.584" transform="translate(23.012 106.563)" fill="#ebebeb"/>
        <rect id="Rectángulo_299321" data-name="Rectángulo 299321" width="138.767" height="1.584" transform="translate(23.012 111.005)" fill="#ebebeb"/>
        <rect id="Rectángulo_299347" data-name="Rectángulo 299347" width="138.767" height="1.584" transform="translate(23.012 44.271)" fill="#ebebeb"/>
        <rect id="Rectángulo_299322" data-name="Rectángulo 299322" width="138.767" height="1.584" transform="translate(23.012 115.438)" fill="#ebebeb"/>
        <rect id="Rectángulo_299323" data-name="Rectángulo 299323" width="138.767" height="1.584" transform="translate(23.012 119.88)" fill="#ebebeb"/>
        <rect id="Rectángulo_299349" data-name="Rectángulo 299349" width="138.767" height="1.584" transform="translate(23.012 57.304)" fill="#ebebeb"/>
        <rect id="Rectángulo_299324" data-name="Rectángulo 299324" width="138.767" height="1.584" transform="translate(23.012 124.313)" fill="#ebebeb"/>
        <rect id="Rectángulo_299325" data-name="Rectángulo 299325" width="138.767" height="1.584" transform="translate(23.012 128.755)" fill="#ebebeb"/>
        <rect id="Rectángulo_299351" data-name="Rectángulo 299351" width="138.767" height="1.584" transform="translate(23.012 66.179)" fill="#ebebeb"/>
        <rect id="Rectángulo_299326" data-name="Rectángulo 299326" width="138.767" height="1.584" transform="translate(23.012 133.188)" fill="#ebebeb"/>
        <rect id="Rectángulo_299327" data-name="Rectángulo 299327" width="85.757" height="1.584" transform="translate(23.012 137.63)" fill="#ebebeb"/>
        <rect id="Rectángulo_299353" data-name="Rectángulo 299353" width="85.757" height="1.584" transform="translate(23.012 75.054)" fill="#ebebeb"/>
        <rect id="Rectángulo_299328" data-name="Rectángulo 299328" width="138.767" height="1.584" transform="translate(23.012 146.496)" fill="#ebebeb"/>
        <rect id="Rectángulo_299329" data-name="Rectángulo 299329" width="138.767" height="1.584" transform="translate(23.012 150.938)" fill="#ebebeb"/>
        <rect id="Rectángulo_299330" data-name="Rectángulo 299330" width="138.767" height="1.584" transform="translate(23.012 155.371)" fill="#ebebeb"/>
        <rect id="Rectángulo_299331" data-name="Rectángulo 299331" width="138.767" height="1.584" transform="translate(23.012 159.813)" fill="#ebebeb"/>
        <rect id="Rectángulo_299332" data-name="Rectángulo 299332" width="138.767" height="1.584" transform="translate(23.012 164.246)" fill="#ebebeb"/>
        <rect id="Rectángulo_299333" data-name="Rectángulo 299333" width="138.767" height="1.584" transform="translate(23.012 168.688)" fill="#ebebeb"/>
        <rect id="Rectángulo_299334" data-name="Rectángulo 299334" width="138.767" height="1.584" transform="translate(23.012 173.121)" fill="#ebebeb"/>
        <rect id="Rectángulo_299335" data-name="Rectángulo 299335" width="138.767" height="1.584" transform="translate(23.012 177.563)" fill="#ebebeb"/>
        <rect id="Rectángulo_299336" data-name="Rectángulo 299336" width="85.757" height="1.584" transform="translate(23.012 181.996)" fill="#ebebeb"/>
        <rect id="Rectángulo_299337" data-name="Rectángulo 299337" width="138.767" height="1.584" transform="translate(23.012 190.871)" fill="#ebebeb"/>
        <rect id="Rectángulo_299338" data-name="Rectángulo 299338" width="138.767" height="1.584" transform="translate(23.012 195.312)" fill="#ebebeb"/>
        <rect id="Rectángulo_299339" data-name="Rectángulo 299339" width="138.767" height="1.584" transform="translate(23.012 199.746)" fill="#ebebeb"/>
        <rect id="Rectángulo_299340" data-name="Rectángulo 299340" width="138.767" height="1.584" transform="translate(23.012 204.179)" fill="#ebebeb"/>
        <rect id="Rectángulo_299341" data-name="Rectángulo 299341" width="138.767" height="1.584" transform="translate(23.012 208.621)" fill="#ebebeb"/>
        <rect id="Rectángulo_299342" data-name="Rectángulo 299342" width="138.767" height="1.584" transform="translate(23.012 213.054)" fill="#ebebeb"/>
        <rect id="Rectángulo_299343" data-name="Rectángulo 299343" width="138.767" height="1.584" transform="translate(23.012 217.496)" fill="#ebebeb"/>
        <rect id="Rectángulo_299344" data-name="Rectángulo 299344" width="85.757" height="1.584" transform="translate(23.012 221.929)" fill="#ebebeb"/>
        <path id="Trazado_664873" data-name="Trazado 664873" d="M218.854,372.49H155.41V353.53h63.444Zm-62.707-.737h61.971V354.267H156.147Z" transform="translate(-132.847 -106.204)" fill="#4db5e1"/>
        <rect id="Rectángulo_299345" data-name="Rectángulo 299345" width="62.7" height="18.223" transform="translate(99.101 247.694)" fill="#4db5e1"/>
        <path id="Trazado_664874" data-name="Trazado 664874" d="M323.584,373.811H255.91V350.74h67.674Zm-66.937-.737h66.2v-21.6h-66.2Z" transform="translate(-159.292 -105.47)" fill="#4db5e1"/>
        <path id="Trazado_664875" data-name="Trazado 664875" d="M285.043,362.51h.884l1.945,5.114h-1.024l-.479-1.275h-1.783l-.472,1.275H283.09Zm1.15,3.139-.737-2.012-.737,2.012Z" transform="translate(-166.444 -108.567)" fill="#fff"/>
        <path id="Trazado_664876" data-name="Trazado 664876" d="M289.667,365.019a2.578,2.578,0,0,1,.169-.929,2.454,2.454,0,0,1,.494-.818,2.529,2.529,0,0,1,.788-.582,2.5,2.5,0,0,1,1.068-.221,2.336,2.336,0,0,1,1.223.31,1.952,1.952,0,0,1,.737.8l-.737.531a1.543,1.543,0,0,0-.251-.368,1.293,1.293,0,0,0-.309-.228,1.227,1.227,0,0,0-.346-.125,1.475,1.475,0,0,0-.354-.044,1.3,1.3,0,0,0-.649.155,1.4,1.4,0,0,0-.464.391,2.014,2.014,0,0,0-.28.545,2.149,2.149,0,0,0,.015,1.267,1.725,1.725,0,0,0,.309.545,1.429,1.429,0,0,0,.479.383,1.283,1.283,0,0,0,.6.147,1.563,1.563,0,0,0,.361-.044,1.356,1.356,0,0,0,.361-.14,1.33,1.33,0,0,0,.31-.236,1.076,1.076,0,0,0,.228-.361l.818.472a1.6,1.6,0,0,1-.346.509,2.121,2.121,0,0,1-.516.368,2.767,2.767,0,0,1-.612.236,2.706,2.706,0,0,1-.634.074,2.211,2.211,0,0,1-1-.228,2.616,2.616,0,0,1-.781-.6,2.779,2.779,0,0,1-.693-1.805Z" transform="translate(-168.173 -108.557)" fill="#fff"/>
        <path id="Trazado_664877" data-name="Trazado 664877" d="M296.31,365.019a2.749,2.749,0,0,1,.169-.928,2.589,2.589,0,0,1,.494-.818,2.446,2.446,0,0,1,1.864-.8,2.313,2.313,0,0,1,1.216.31,1.975,1.975,0,0,1,.774.8l-.737.53a1.333,1.333,0,0,0-.243-.368,1.29,1.29,0,0,0-.31-.228,1.223,1.223,0,0,0-.346-.125,1.539,1.539,0,0,0-.354-.044,1.326,1.326,0,0,0-.656.155,1.4,1.4,0,0,0-.464.391,1.8,1.8,0,0,0-.273.545,2,2,0,0,0,0,1.267,1.7,1.7,0,0,0,.3.545,1.474,1.474,0,0,0,.479.383,1.313,1.313,0,0,0,.612.147,1.47,1.47,0,0,0,.354-.044,1.265,1.265,0,0,0,.361-.14,1.363,1.363,0,0,0,.317-.236A1.208,1.208,0,0,0,300.1,366l.811.472a1.6,1.6,0,0,1-.346.508,2.207,2.207,0,0,1-.508.368,2.943,2.943,0,0,1-.612.236,2.747,2.747,0,0,1-.634.074,2.16,2.16,0,0,1-1-.228,2.529,2.529,0,0,1-.781-.6,2.719,2.719,0,0,1-.516-.84,2.58,2.58,0,0,1-.2-.965Z" transform="translate(-169.923 -108.557)" fill="#fff"/>
        <path id="Trazado_664878" data-name="Trazado 664878" d="M307,366.754v.87H303.44V362.51h3.493v.87h-2.5v1.231h2.159v.811h-2.159v1.334Z" transform="translate(-171.799 -108.567)" fill="#fff"/>
        <path id="Trazado_664879" data-name="Trazado 664879" d="M309.32,367.624V362.51h2.174a1.378,1.378,0,0,1,.648.147,1.593,1.593,0,0,1,.516.391,1.739,1.739,0,0,1,.339.545,1.688,1.688,0,0,1,.125.619,1.658,1.658,0,0,1-.118.626,1.622,1.622,0,0,1-.324.545,1.592,1.592,0,0,1-.5.383,1.474,1.474,0,0,1-.648.147h-1.216v1.71Zm.995-2.586h1.157a.575.575,0,0,0,.457-.221.913.913,0,0,0,.184-.6,1.045,1.045,0,0,0-.059-.354.92.92,0,0,0-.147-.265.773.773,0,0,0-.221-.162.8.8,0,0,0-.258-.052h-1.113Z" transform="translate(-173.346 -108.567)" fill="#fff"/>
        <path id="Trazado_664880" data-name="Trazado 664880" d="M319.089,363.38h-1.636v4.244h-.987V363.38H314.83v-.87h4.259Z" transform="translate(-174.796 -108.567)" fill="#fff"/>
        <rect id="Rectángulo_299346" data-name="Rectángulo 299346" width="5.239" height="257.34" transform="translate(171.506 25.105)" fill="#dbdbdb"/>
        <path id="Trazado_664881" data-name="Trazado 664881" d="M360.606,253.774h0a1.356,1.356,0,0,1-1.356-1.356V89.7a1.356,1.356,0,0,1,1.356-1.356h0a1.356,1.356,0,0,1,1.356,1.356V252.411A1.363,1.363,0,0,1,360.606,253.774Z" transform="translate(-186.484 -62.181)" fill="#a6a6a6"/>
      </g>
      <g id="freepik--speech-bubble--inject-172" transform="translate(335.014 79.02)">
        <path id="Trazado_664882" data-name="Trazado 664882" d="M445.24,106.227a16.012,16.012,0,0,1-26.763,10.132l-8.017,1.172,4.009-6.927a16.019,16.019,0,1,1,30.771-4.377Z" transform="translate(-409.922 -88.416)" fill="#fff"/>
        <path id="Trazado_664883" data-name="Trazado 664883" d="M445.048,106.18a16.1,16.1,0,0,1-3.235,8.106,17.283,17.283,0,0,1-1.474,1.665,18.486,18.486,0,0,1-1.687,1.474,16.211,16.211,0,0,1-8.179,3.176,14.965,14.965,0,0,1-2.211.044,14.063,14.063,0,0,1-2.211-.228,16.212,16.212,0,0,1-7.921-3.913l.184.059-8,1.223-.582.088.295-.508,3.987-6.941v.273A16.211,16.211,0,0,1,415,96.416a16.49,16.49,0,0,1,5-5.372,16.211,16.211,0,0,1,25.054,15.128Zm0,0a15.9,15.9,0,0,0-24.8-14.737,16.617,16.617,0,0,0-4.8,5.232,15.908,15.908,0,0,0-2.034,6.779,16.131,16.131,0,0,0,1.127,6.978l.059.14-.074.133-4.038,6.919-.28-.427,8.039-1.1h.111l.081.074a15.82,15.82,0,0,0,7.7,3.92,14.353,14.353,0,0,0,2.211.265,15.43,15.43,0,0,0,6.47-.951,14.808,14.808,0,0,0,3.861-2.078,14.583,14.583,0,0,0,3.154-3.065A16.159,16.159,0,0,0,445.048,106.18Z" transform="translate(-409.73 -88.369)" fill="#263238"/>
        <path id="Trazado_664884" data-name="Trazado 664884" d="M431.048,116.181l-6.838-6.927,2.3-2.27,3.994,4.045,8.3-13.02,2.727,1.739Z" transform="translate(-413.54 -90.906)" fill="#4db5e1"/>
      </g>
    </g>
  </g>
</svg>
