<svg xmlns="http://www.w3.org/2000/svg" width="349.24" height="281.998" viewBox="0 0 349.24 281.998">
  <g id="Grupo_895916" data-name="Grupo 895916" transform="translate(12283.86 12218.779)">
    <g id="freepik--Windows--inject-53" transform="translate(-12329.12 -12253.165)">
      <g id="freepik--flowchart-window--inject-53">
        <g id="freepik--Window--inject-53">
          <g id="freepik--window--inject-53-2" data-name="freepik--window--inject-53">
            <path id="Trazado_665639" data-name="Trazado 665639" d="M60.93,271a1.29,1.29,0,0,0,.65-.2l171.28-99a5.42,5.42,0,0,0,2.43-4.19V38.19c0-.91-.38-1.45-1-1.45a2,2,0,0,0-1,.3L62,136a5.44,5.44,0,0,0-2.43,4.2V268.94a2.65,2.65,0,0,0,.42,1.48A1.16,1.16,0,0,0,60.93,271Z" fill="#fafafa"/>
            <path id="Trazado_665640" data-name="Trazado 665640" d="M56.88,269.32c.29.15,2.35,1.32,3.25,1.84a2.69,2.69,0,0,1-1-2.23V148.83l-3.39-2V267A2.59,2.59,0,0,0,56.88,269.32Z" fill="#ebebeb"/>
          </g>
          <path id="freepik--Outline--inject-53" d="M234.27,37.19c.5,0,.57.62.57,1V167.6a5,5,0,0,1-2.2,3.81l-171.28,99a.88.88,0,0,1-.43.13c-.47,0-.88-.73-.88-1.57V140.17a4.93,4.93,0,0,1,2.2-3.81L233.53,37.43a1.5,1.5,0,0,1,.74-.24m0-.89a2.32,2.32,0,0,0-1.18.36L61.8,135.58a5.86,5.86,0,0,0-2.64,4.59V268.94c0,1.33.74,2.47,1.77,2.47a1.73,1.73,0,0,0,.88-.26l171.27-99a5.83,5.83,0,0,0,2.66-4.58V38.19C235.74,36.99,235.14,36.3,234.27,36.3Z" fill="#e0e0e0"/>
          <g id="freepik--up-bar--inject-53">
            <path id="Trazado_665641" data-name="Trazado 665641" d="M235.73,38.13V47L59.16,149l-3.39-2v-8.72a5.53,5.53,0,0,1,.8-2.65,5.37,5.37,0,0,1,1.85-1.93L229.7,34.74a1.88,1.88,0,0,1,1.93-.16c.49.3,2.81,1.62,3.28,1.86a.72.72,0,0,1,.2.14,1,1,0,0,1,.21.21,1.24,1.24,0,0,1,.17.27,1,1,0,0,1,.13.32,1.9,1.9,0,0,1,.08.36h0a2.217,2.217,0,0,1,.03.39Z" fill="#88b1d1"/>
            <path id="Trazado_665642" data-name="Trazado 665642" d="M235.73,38.13V47L59.16,149l-3.39-2v-8.72a5.53,5.53,0,0,1,.8-2.65,5.37,5.37,0,0,1,1.85-1.93L229.7,34.74a1.88,1.88,0,0,1,1.93-.16c.49.3,2.81,1.62,3.28,1.86a.72.72,0,0,1,.2.14,1,1,0,0,1,.21.21,1.24,1.24,0,0,1,.17.27,1,1,0,0,1,.13.32,1.9,1.9,0,0,1,.08.36h0a2.217,2.217,0,0,1,.03.39Z" opacity="0.15"/>
            <path id="Trazado_665643" data-name="Trazado 665643" d="M235.73,38.13V47L59.16,149v-8.76a4.73,4.73,0,0,1,.32-1.65,1.92,1.92,0,0,1,.11-.27,6,6,0,0,1,.36-.72,5.3,5.3,0,0,1,1.86-1.95L233.08,36.66a1.76,1.76,0,0,1,2-.08,1,1,0,0,1,.21.21,1.24,1.24,0,0,1,.17.27,1,1,0,0,1,.13.32,1.9,1.9,0,0,1,.08.36h0A2.22,2.22,0,0,1,235.73,38.13Z" fill="#88b1d1"/>
            <path id="Trazado_665644" data-name="Trazado 665644" d="M218,48.76a4.37,4.37,0,0,0-1.65,3.5c0,1.41.74,2.12,1.65,1.59a4.37,4.37,0,0,0,1.65-3.5C219.6,49,218.86,48.23,218,48.76Z" fill="#fafafa"/>
            <path id="Trazado_665645" data-name="Trazado 665645" d="M223.9,45.32a4.35,4.35,0,0,0-1.65,3.5c0,1.4.74,2.12,1.65,1.59a4.36,4.36,0,0,0,1.66-3.5C225.56,45.5,224.82,44.79,223.9,45.32Z" fill="#fafafa"/>
            <path id="Trazado_665646" data-name="Trazado 665646" d="M229.86,41.87a4.36,4.36,0,0,0-1.66,3.5c0,1.41.74,2.12,1.66,1.6a4.38,4.38,0,0,0,1.65-3.5C231.51,42.06,230.77,41.35,229.86,41.87Z" fill="#fafafa"/>
            <path id="Trazado_665647" data-name="Trazado 665647" d="M233.09,36.66,61.81,135.58a5.46,5.46,0,0,0-1.87,2l-3.36-2a5.22,5.22,0,0,1,1.84-1.94L229.7,34.74a1.88,1.88,0,0,1,1.93-.16c.47.29,2.67,1.54,3.23,1.84a1.93,1.93,0,0,0-1.77.24Z" fill="#88b1d1"/>
            <g id="Grupo_895363" data-name="Grupo 895363" opacity="0.5">
              <path id="Trazado_665648" data-name="Trazado 665648" d="M233.09,36.66,61.81,135.58a5.46,5.46,0,0,0-1.87,2l-3.36-2a5.22,5.22,0,0,1,1.84-1.94L229.7,34.74a1.88,1.88,0,0,1,1.93-.16c.47.29,2.67,1.54,3.23,1.84a1.93,1.93,0,0,0-1.77.24Z" fill="#fff"/>
            </g>
          </g>
        </g>
        <g id="freepik--Flowchart--inject-53">
          <path id="Trazado_665649" data-name="Trazado 665649" d="M102,153.24a.24.24,0,0,1-.24-.24V142.91a.24.24,0,0,1,.24-.24.23.23,0,0,1,.23.24V153a.23.23,0,0,1-.23.24Z" fill="#455a64"/>
          <path id="Trazado_665650" data-name="Trazado 665650" d="M101.15,152.05l.81.81.8-.81v.69l-.8.8-.81-.8Z" fill="#455a64"/>
          <path id="Trazado_665651" data-name="Trazado 665651" d="M110.53,154.34a.22.22,0,0,1-.21-.12.23.23,0,0,1,.09-.32l6.64-3.84a.238.238,0,1,1,.24.41l-6.65,3.84a.2.2,0,0,1-.11.03Z" fill="#455a64"/>
          <path id="Trazado_665652" data-name="Trazado 665652" d="M116.75,151.44l.3-1.1-1.1-.3.59-.34,1.1.29-.29,1.1Z" fill="#455a64"/>
          <path id="Trazado_665653" data-name="Trazado 665653" d="M109.3,207.35a.22.22,0,0,1-.21-.12.23.23,0,0,1,.09-.32l6.64-3.84a.25.25,0,0,1,.33.09.26.26,0,0,1-.09.33l-6.65,3.83A.2.2,0,0,1,109.3,207.35Z" fill="#455a64"/>
          <path id="Trazado_665654" data-name="Trazado 665654" d="M115.52,204.45l.3-1.1-1.1-.29.59-.35,1.1.3-.29,1.1Z" fill="#455a64"/>
          <path id="Trazado_665655" data-name="Trazado 665655" d="M133.41,193.43a.232.232,0,0,1-.11-.44l6.64-3.84a.22.22,0,0,1,.32.09.23.23,0,0,1-.08.32l-6.65,3.84a.24.24,0,0,1-.12.03Z" fill="#455a64"/>
          <path id="Trazado_665656" data-name="Trazado 665656" d="M139.64,190.53l.3-1.1-1.1-.3.59-.34,1.1.29-.3,1.1Z" fill="#455a64"/>
          <path id="Trazado_665657" data-name="Trazado 665657" d="M135,140.23a.22.22,0,0,1-.2-.12.23.23,0,0,1,.08-.32l6.65-3.84a.238.238,0,0,1,.24.41l-6.65,3.84a.27.27,0,0,1-.12.03Z" fill="#455a64"/>
          <path id="Trazado_665658" data-name="Trazado 665658" d="M141.19,137.33l.3-1.1-1.1-.3.59-.34,1.1.29-.3,1.11Z" fill="#455a64"/>
          <path id="Trazado_665659" data-name="Trazado 665659" d="M134.53,166.89a.234.234,0,0,1-.12-.44l6.64-3.84a.242.242,0,0,1,.24.42l-6.65,3.83a.2.2,0,0,1-.11.03Z" fill="#455a64"/>
          <path id="Trazado_665660" data-name="Trazado 665660" d="M134.94,165.49l-.29,1.1,1.1.29-.59.34-1.1-.29.29-1.1Z" fill="#455a64"/>
          <path id="Trazado_665661" data-name="Trazado 665661" d="M134.1,216.47a.243.243,0,0,1-.1-.47l6.2-3.59a.24.24,0,0,1,.32.09.23.23,0,0,1-.08.32l-6.21,3.59a.27.27,0,0,1-.13.06Z" fill="#455a64"/>
          <path id="Trazado_665662" data-name="Trazado 665662" d="M134.52,215.06l-.3,1.1,1.1.3-.59.34-1.1-.3.3-1.1Z" fill="#455a64"/>
          <path id="Trazado_665663" data-name="Trazado 665663" d="M110.64,180.68a.22.22,0,0,1-.2-.12.23.23,0,0,1,.08-.32l6.65-3.84a.239.239,0,0,1,.23.42l-6.64,3.83Z" fill="#455a64"/>
          <path id="Trazado_665664" data-name="Trazado 665664" d="M111.06,179.28l-.3,1.1,1.1.29-.59.34-1.1-.29.3-1.1Z" fill="#455a64"/>
          <path id="Trazado_665665" data-name="Trazado 665665" d="M148.44,149.24a.24.24,0,0,1-.24-.24v-7.69a.24.24,0,1,1,.48,0V149a.24.24,0,0,1-.24.24Z" fill="#455a64"/>
          <path id="Trazado_665666" data-name="Trazado 665666" d="M147.64,148.06l.8.8.81-.8v.68l-.81.8-.8-.8Z" fill="#455a64"/>
          <path id="Trazado_665667" data-name="Trazado 665667" d="M102,198.38a.21.21,0,0,1-.12,0,.22.22,0,0,1-.12-.2v-5.66a.24.24,0,0,1,.24-.24.23.23,0,0,1,.23.24v5.24l46-26.56v-3.52a.24.24,0,0,1,.48,0v3.66a.24.24,0,0,1-.12.2L102.1,198.38A.2.2,0,0,1,102,198.38Z" fill="#455a64"/>
          <path id="Trazado_665668" data-name="Trazado 665668" d="M102.76,193.43l-.8-.8-.81.8v-.68l.81-.81.8.81Z" fill="#455a64"/>
          <path id="Trazado_665669" data-name="Trazado 665669" d="M102,224.63a.21.21,0,0,1-.12,0,.22.22,0,0,1-.12-.21v-3.65a.24.24,0,0,1,.24-.24.23.23,0,0,1,.23.24V224l46-26.56V191.9a.24.24,0,0,1,.48,0v5.66a.24.24,0,0,1-.12.2L102.07,224.6a.2.2,0,0,1-.07.03Z" fill="#455a64"/>
          <path id="Trazado_665670" data-name="Trazado 665670" d="M149.25,192.84l-.81-.8-.8.8v-.68l.8-.8.81.8Z" fill="#455a64"/>
          <path id="Trazado_665671" data-name="Trazado 665671" d="M91.32,217.73a.27.27,0,0,1-.12,0,.24.24,0,0,1-.12-.21V191.6a.24.24,0,0,1,.12-.2l2.52-1.46a.217.217,0,0,1,.19.39l-2.39,1.38v25.34l2.64-1.52a.24.24,0,1,1,.23.41l-3,1.73a.27.27,0,0,1-.07.06Z" fill="#455a64"/>
          <path id="Trazado_665672" data-name="Trazado 665672" d="M93.9,216.94l.29-1.1-1.1-.3.6-.34,1.09.3-.29,1.09Z" fill="#455a64"/>
          <path id="Trazado_665673" data-name="Trazado 665673" d="M157.45,203a.22.22,0,0,1-.2-.12.24.24,0,0,1,.09-.33l2.5-1.44v-22.9l-2.16,1.24a.23.23,0,0,1-.32-.08.24.24,0,0,1,.08-.33l2.52-1.45a.25.25,0,0,1,.24,0,.24.24,0,0,1,.11.21v23.44a.23.23,0,0,1-.11.2L157.57,203A.24.24,0,0,1,157.45,203Z" fill="#455a64"/>
          <path id="Trazado_665674" data-name="Trazado 665674" d="M157.87,201.58l-.29,1.1,1.1.29-.6.35-1.1-.3.3-1.1Z" fill="#455a64"/>
          <path id="Trazado_665675" data-name="Trazado 665675" d="M109.13,132.51c0,2.69-3.21,6.72-7.17,9s-7.18,2-7.18-.73,3.21-6.72,7.18-9S109.13,129.82,109.13,132.51Z" fill="#88b1d1"/>
          <ellipse id="Elipse_7498" data-name="Elipse 7498" cx="8.73" cy="3.99" rx="8.73" ry="3.99" transform="translate(116.249 223.754) rotate(-39.93)" fill="#88b1d1"/>
          <path id="Trazado_665676" data-name="Trazado 665676" d="M108.49,159.59l-13.07,7.54c-.39.22-.7,0-.7-.54v-6.73a1.69,1.69,0,0,1,.7-1.35L108.49,151c.39-.22.7,0,.7.54v6.72a1.7,1.7,0,0,1-.7,1.33Z" fill="#88b1d1"/>
          <path id="Trazado_665677" data-name="Trazado 665677" d="M108.49,159.59l-13.07,7.54c-.39.22-.7,0-.7-.54v-6.73a1.69,1.69,0,0,1,.7-1.35L108.49,151c.39-.22.7,0,.7.54v6.72a1.7,1.7,0,0,1-.7,1.33Z" fill="#fff" opacity="0.6"/>
          <path id="Trazado_665678" data-name="Trazado 665678" d="M132,146l-13,7.53c-.39.23-.71,0-.71-.53v-6.73a1.69,1.69,0,0,1,.71-1.35l13-7.54c.39-.23.71,0,.71.53v6.73A1.69,1.69,0,0,1,132,146Z" fill="#88b1d1"/>
          <path id="Trazado_665679" data-name="Trazado 665679" d="M132,146l-13,7.53c-.39.23-.71,0-.71-.53v-6.73a1.69,1.69,0,0,1,.71-1.35l13-7.54c.39-.23.71,0,.71.53v6.73A1.69,1.69,0,0,1,132,146Z" fill="#fff" opacity="0.6"/>
          <path id="Trazado_665680" data-name="Trazado 665680" d="M132,172.4l-13,7.54c-.39.23-.71,0-.71-.53v-6.73a1.7,1.7,0,0,1,.71-1.35l13-7.54c.39-.23.71,0,.71.53v6.73a1.69,1.69,0,0,1-.71,1.35Z" fill="#88b1d1"/>
          <path id="Trazado_665681" data-name="Trazado 665681" d="M132,172.4l-13,7.54c-.39.23-.71,0-.71-.53v-6.73a1.7,1.7,0,0,1,.71-1.35l13-7.54c.39-.23.71,0,.71.53v6.73a1.69,1.69,0,0,1-.71,1.35Z" fill="#fff" opacity="0.6"/>
          <path id="Trazado_665682" data-name="Trazado 665682" d="M132,198.3l-13,7.54c-.39.22-.71,0-.71-.54v-6.73a1.7,1.7,0,0,1,.71-1.35l13-7.54c.39-.22.71,0,.71.54v6.72a1.71,1.71,0,0,1-.71,1.36Z" fill="#88b1d1"/>
          <path id="Trazado_665683" data-name="Trazado 665683" d="M132,198.3l-13,7.54c-.39.22-.71,0-.71-.54v-6.73a1.7,1.7,0,0,1,.71-1.35l13-7.54c.39-.22.71,0,.71.54v6.72a1.71,1.71,0,0,1-.71,1.36Z" fill="#fff" opacity="0.6"/>
          <path id="Trazado_665684" data-name="Trazado 665684" d="M155,185.05l-13.06,7.54c-.39.23-.71,0-.71-.53v-6.73a1.7,1.7,0,0,1,.71-1.35L155,176.44c.39-.23.71,0,.71.53v6.73A1.69,1.69,0,0,1,155,185.05Z" fill="#88b1d1"/>
          <path id="Trazado_665685" data-name="Trazado 665685" d="M155,185.05l-13.06,7.54c-.39.23-.71,0-.71-.53v-6.73a1.7,1.7,0,0,1,.71-1.35L155,176.44c.39-.23.71,0,.71.53v6.73A1.69,1.69,0,0,1,155,185.05Z" fill="#fff" opacity="0.6"/>
          <path id="Trazado_665686" data-name="Trazado 665686" d="M155,208.49,141.91,216c-.39.23-.71,0-.71-.53v-6.73a1.69,1.69,0,0,1,.71-1.35L155,199.88c.39-.23.71,0,.71.53v6.73a1.7,1.7,0,0,1-.71,1.35Z" fill="#88b1d1"/>
          <path id="Trazado_665687" data-name="Trazado 665687" d="M155,208.49,141.91,216c-.39.23-.71,0-.71-.53v-6.73a1.69,1.69,0,0,1,.71-1.35L155,199.88c.39-.23.71,0,.71.53v6.73a1.7,1.7,0,0,1-.71,1.35Z" fill="#fff" opacity="0.6"/>
          <path id="Trazado_665688" data-name="Trazado 665688" d="M108.49,186l-13.07,7.54c-.39.23-.7,0-.7-.54v-6.72a1.71,1.71,0,0,1,.7-1.36l13.07-7.54c.39-.22.7,0,.7.54v6.73A1.69,1.69,0,0,1,108.49,186Z" fill="#88b1d1"/>
          <path id="Trazado_665689" data-name="Trazado 665689" d="M108.49,186l-13.07,7.54c-.39.23-.7,0-.7-.54v-6.72a1.71,1.71,0,0,1,.7-1.36l13.07-7.54c.39-.22.7,0,.7.54v6.73A1.69,1.69,0,0,1,108.49,186Z" fill="#fff" opacity="0.6"/>
          <path id="Trazado_665690" data-name="Trazado 665690" d="M147.78,139.27l-5.52-7.71a2.12,2.12,0,0,1,.66-2.47l11-6.37c.7-.41,1.09.6.66,1.7l-5.52,14.09C148.77,139.37,148.12,139.74,147.78,139.27Z" fill="#455a64"/>
          <path id="Trazado_665691" data-name="Trazado 665691" d="M154.06,156.41l-5.12,8.83c-.3.51-.7.75-1,.58l-5.12-2.92c-.45-.26-.45-1.29,0-2.07l5.12-8.82c.3-.51.7-.75,1-.58l5.12,2.92C154.51,154.6,154.51,155.64,154.06,156.41Z" fill="#f28f8f"/>
          <path id="Trazado_665692" data-name="Trazado 665692" d="M107.57,209.14,102.46,218c-.3.51-.71.75-1,.58l-5.12-2.92c-.45-.25-.45-1.29,0-2.07l5.12-8.82c.29-.51.7-.75,1-.58l5.11,2.92C108,207.33,108,208.37,107.57,209.14Z" fill="#f28f8f"/>
          <path id="Trazado_665693" data-name="Trazado 665693" d="M82.59,178a.26.26,0,0,1-.21-.11.25.25,0,0,1,.09-.33l15.42-8.9a.24.24,0,0,1,.33.08.25.25,0,0,1-.09.33L82.71,178a.27.27,0,0,1-.12,0Z" fill="#455a64"/>
          <path id="Trazado_665694" data-name="Trazado 665694" d="M82.59,180.28a.25.25,0,0,1-.21-.12.24.24,0,0,1,.09-.32l15.42-8.91a.25.25,0,0,1,.33.09.24.24,0,0,1-.09.32l-15.42,8.91A.27.27,0,0,1,82.59,180.28Z" fill="#e0e0e0"/>
          <path id="Trazado_665695" data-name="Trazado 665695" d="M82.59,182.52a.27.27,0,0,1-.21-.12.25.25,0,0,1,.09-.33l15.42-8.9a.238.238,0,1,1,.24.41l-15.42,8.91Z" fill="#e0e0e0"/>
          <path id="Trazado_665696" data-name="Trazado 665696" d="M82.59,184.75a.26.26,0,0,1-.21-.11.25.25,0,0,1,.09-.33l15.42-8.9a.24.24,0,0,1,.33.08.25.25,0,0,1-.09.33l-15.42,8.9a.27.27,0,0,1-.12.03Z" fill="#e0e0e0"/>
          <path id="Trazado_665697" data-name="Trazado 665697" d="M75.81,151.87a.22.22,0,0,1-.2-.12.24.24,0,0,1,.08-.33l15.43-8.9a.24.24,0,0,1,.23.41l-15.42,8.91a.27.27,0,0,1-.12.03Z" fill="#455a64"/>
          <path id="Trazado_665698" data-name="Trazado 665698" d="M75.81,154.1a.23.23,0,0,1-.2-.11.24.24,0,0,1,.08-.33l15.43-8.9a.23.23,0,0,1,.32.08.24.24,0,0,1-.09.33l-15.42,8.9A.27.27,0,0,1,75.81,154.1Z" fill="#e0e0e0"/>
          <path id="Trazado_665699" data-name="Trazado 665699" d="M75.81,156.34a.22.22,0,0,1-.2-.12.23.23,0,0,1,.08-.32L91.12,147a.24.24,0,0,1,.32.09.23.23,0,0,1-.09.32l-15.42,8.91A.27.27,0,0,1,75.81,156.34Z" fill="#e0e0e0"/>
          <path id="Trazado_665700" data-name="Trazado 665700" d="M75.81,158.58a.24.24,0,0,1-.12-.45l15.43-8.9a.235.235,0,1,1,.23.41l-15.42,8.91Z" fill="#e0e0e0"/>
          <path id="Trazado_665701" data-name="Trazado 665701" d="M117.79,157.45a.24.24,0,0,1-.12-.45l15.43-8.9a.235.235,0,1,1,.23.41l-15.42,8.9A.19.19,0,0,1,117.79,157.45Z" fill="#455a64"/>
          <path id="Trazado_665702" data-name="Trazado 665702" d="M117.79,159.68a.22.22,0,0,1-.2-.12.23.23,0,0,1,.08-.32l15.43-8.91a.24.24,0,0,1,.23.42l-15.42,8.9Z" fill="#e0e0e0"/>
          <path id="Trazado_665703" data-name="Trazado 665703" d="M117.79,161.92a.22.22,0,0,1-.2-.12.23.23,0,0,1,.08-.32l15.43-8.91a.24.24,0,0,1,.32.09.23.23,0,0,1-.09.32l-15.42,8.91A.27.27,0,0,1,117.79,161.92Z" fill="#e0e0e0"/>
          <path id="Trazado_665704" data-name="Trazado 665704" d="M117.79,164.16a.24.24,0,0,1-.12-.45l15.43-8.9a.23.23,0,0,1,.32.08.24.24,0,0,1-.09.33l-15.42,8.9A.19.19,0,0,1,117.79,164.16Z" fill="#e0e0e0"/>
          <path id="Trazado_665705" data-name="Trazado 665705" d="M140.1,119.2a.232.232,0,0,1-.11-.44l15.42-8.91a.24.24,0,0,1,.32.09.23.23,0,0,1-.08.32l-15.43,8.91A.24.24,0,0,1,140.1,119.2Z" fill="#455a64"/>
          <path id="Trazado_665706" data-name="Trazado 665706" d="M140.1,121.44a.232.232,0,0,1-.1-.44l15.42-8.9a.22.22,0,0,1,.32.09.23.23,0,0,1-.08.32l-15.43,8.9a.17.17,0,0,1-.13.03Z" fill="#e0e0e0"/>
          <path id="Trazado_665707" data-name="Trazado 665707" d="M140.1,123.67a.22.22,0,0,1-.2-.12.23.23,0,0,1,.09-.32l15.42-8.9a.23.23,0,0,1,.32.08.24.24,0,0,1-.08.33l-15.43,8.9A.24.24,0,0,1,140.1,123.67Z" fill="#e0e0e0"/>
          <path id="Trazado_665708" data-name="Trazado 665708" d="M140.1,125.91a.232.232,0,0,1-.11-.44l15.42-8.91a.24.24,0,0,1,.32.09.23.23,0,0,1-.08.32l-15.43,8.91a.24.24,0,0,1-.12.03Z" fill="#e0e0e0"/>
          <path id="Trazado_665709" data-name="Trazado 665709" d="M154.39,144.24a.232.232,0,0,1-.11-.44l15.42-8.91a.242.242,0,0,1,.24.42l-15.43,8.9A.24.24,0,0,1,154.39,144.24Z" fill="#455a64"/>
          <path id="Trazado_665710" data-name="Trazado 665710" d="M154.39,146.48a.22.22,0,0,1-.2-.12.24.24,0,0,1,.09-.33l15.42-8.9a.22.22,0,0,1,.32.09.23.23,0,0,1-.08.32l-15.43,8.91a.24.24,0,0,1-.12.03Z" fill="#e0e0e0"/>
          <path id="Trazado_665711" data-name="Trazado 665711" d="M154.39,148.71a.23.23,0,0,1-.2-.11.24.24,0,0,1,.09-.33l15.42-8.9a.23.23,0,0,1,.32.08.24.24,0,0,1-.08.33l-15.43,8.9a.24.24,0,0,1-.12.03Z" fill="#e0e0e0"/>
          <path id="Trazado_665712" data-name="Trazado 665712" d="M154.39,151a.232.232,0,0,1-.11-.44l15.42-8.91a.24.24,0,0,1,.32.09.23.23,0,0,1-.08.32l-15.43,8.91a.24.24,0,0,1-.12.03Z" fill="#e0e0e0"/>
          <path id="Trazado_665713" data-name="Trazado 665713" d="M154.39,166.48a.232.232,0,0,1-.11-.44l15.42-8.91a.24.24,0,0,1,.32.09.23.23,0,0,1-.08.32l-15.43,8.91a.24.24,0,0,1-.12.03Z" fill="#455a64"/>
          <path id="Trazado_665714" data-name="Trazado 665714" d="M154.39,168.72a.24.24,0,0,1-.11-.45l15.42-8.9a.22.22,0,0,1,.32.09.23.23,0,0,1-.08.32l-15.43,8.91a.24.24,0,0,1-.12.03Z" fill="#e0e0e0"/>
          <path id="Trazado_665715" data-name="Trazado 665715" d="M154.39,171a.22.22,0,0,1-.2-.12.23.23,0,0,1,.09-.32l15.42-8.9a.23.23,0,0,1,.32.08.24.24,0,0,1-.08.33l-15.43,8.9a.24.24,0,0,1-.12.03Z" fill="#e0e0e0"/>
          <path id="Trazado_665716" data-name="Trazado 665716" d="M154.39,173.19a.232.232,0,0,1-.11-.44l15.42-8.91a.24.24,0,0,1,.32.09.23.23,0,0,1-.08.32l-15.43,8.91a.24.24,0,0,1-.12.03Z" fill="#e0e0e0"/>
          <path id="Trazado_665717" data-name="Trazado 665717" d="M81.83,228.53a.25.25,0,0,1-.21-.11.24.24,0,0,1,.09-.33l15.42-8.9a.24.24,0,0,1,.33.08.25.25,0,0,1-.09.33L82,228.5A.27.27,0,0,1,81.83,228.53Z" fill="#455a64"/>
          <path id="Trazado_665718" data-name="Trazado 665718" d="M81.83,230.77a.24.24,0,0,1-.21-.12.23.23,0,0,1,.09-.32l15.42-8.91a.25.25,0,0,1,.33.09.24.24,0,0,1-.09.32L82,230.74Z" fill="#e0e0e0"/>
          <path id="Trazado_665719" data-name="Trazado 665719" d="M81.83,233a.26.26,0,0,1-.21-.12.24.24,0,0,1,.09-.33l15.42-8.9a.238.238,0,1,1,.24.41L82,233A.27.27,0,0,1,81.83,233Z" fill="#e0e0e0"/>
          <path id="Trazado_665720" data-name="Trazado 665720" d="M81.83,235.24a.24.24,0,0,1-.12-.44l15.42-8.9a.24.24,0,0,1,.33.08.25.25,0,0,1-.09.33L82,235.21Z" fill="#e0e0e0"/>
        </g>
      </g>
      <g id="freepik--code-window--inject-53">
        <g id="freepik--window--inject-53-3" data-name="freepik--window--inject-53">
          <path id="Trazado_665721" data-name="Trazado 665721" d="M261.3,62V183.89a6.45,6.45,0,0,1-2.93,5.07l-77.9,45a1.88,1.88,0,0,1-1,.28,1.571,1.571,0,0,1-.37,0,1.06,1.06,0,0,1-.25-.09l-.16-.08-.17-.12a1.07,1.07,0,0,1-.16-.14,2.37,2.37,0,0,1-.54-.77,3.69,3.69,0,0,1-.31-1.48V110.27a6.5,6.5,0,0,1,2.93-5.07l77.9-44.91a2.13,2.13,0,0,1,2-.25,1.65,1.65,0,0,1,.25.15A2.07,2.07,0,0,1,261.3,62Z" fill="#455a64"/>
          <path id="Trazado_665722" data-name="Trazado 665722" d="M259.67,60.9a.53.53,0,0,1,.27.06h.05a1.308,1.308,0,0,1,.31,1V183.89a5.44,5.44,0,0,1-2.43,4.2l-77.89,45a1,1,0,0,1-.47.15h-.22l-.08-.06h-.06l-.05-.05a1.541,1.541,0,0,1-.3-.44,2.69,2.69,0,0,1-.22-1.07V110.27a5.56,5.56,0,0,1,2.43-4.2l77.9-44.91a1.63,1.63,0,0,1,.8-.26m0-1a2.63,2.63,0,0,0-1.3.39l-77.9,44.91a6.5,6.5,0,0,0-2.93,5.07v121.2a3.69,3.69,0,0,0,.31,1.48,2.37,2.37,0,0,0,.54.77,1.069,1.069,0,0,0,.16.14l.17.12.16.08a1.06,1.06,0,0,0,.25.09,1.57,1.57,0,0,0,.37,0h0a1.94,1.94,0,0,0,.93-.28l77.9-45a6.45,6.45,0,0,0,2.93-5.07V62a2.07,2.07,0,0,0-.71-1.77,1.47,1.47,0,0,0-.92-.29Z" fill="#455a64"/>
          <g id="Grupo_895364" data-name="Grupo 895364" opacity="0.8">
            <path id="Trazado_665723" data-name="Trazado 665723" d="M261.3,62V183.89a6.45,6.45,0,0,1-2.93,5.07l-77.9,45a1.88,1.88,0,0,1-1,.28,1.571,1.571,0,0,1-.37,0,1.06,1.06,0,0,1-.25-.09l-.16-.08-.17-.12a1.07,1.07,0,0,1-.16-.14,2.37,2.37,0,0,1-.54-.77,3.69,3.69,0,0,1-.31-1.48V110.27a6.5,6.5,0,0,1,2.93-5.07l77.9-44.91a2.13,2.13,0,0,1,2-.25,1.65,1.65,0,0,1,.25.15A2.07,2.07,0,0,1,261.3,62Z" fill="#455a64"/>
          </g>
          <path id="Trazado_665724" data-name="Trazado 665724" d="M260.34,60a2.13,2.13,0,0,0-2,.25l-77.9,44.91a6.5,6.5,0,0,0-2.93,5.07v9.57l-3.73-2.19v-9.5a6.44,6.44,0,0,1,2.92-5.06l77.91-44.91a2,2,0,0,1,2.12-.17C257.29,58.32,259.72,59.72,260.34,60Z" fill="#88b1d1"/>
          <path id="Trazado_665725" data-name="Trazado 665725" d="M261.3,62c0-1.85-1.32-2.59-2.93-1.66l-77.9,44.91a6.47,6.47,0,0,0-2.92,5.06v9.57L261.3,71.57Z" fill="#88b1d1"/>
          <g id="Grupo_895365" data-name="Grupo 895365" opacity="0.4">
            <path id="Trazado_665726" data-name="Trazado 665726" d="M258.37,60.29l-77.9,44.91a6.1,6.1,0,0,0-2.06,2.18l-3.71-2.16a5.79,5.79,0,0,1,2-2.13l77.9-44.91a2.07,2.07,0,0,1,2.13-.18c.52.33,2.95,1.71,3.57,2a2.11,2.11,0,0,0-1.93.29Z" fill="#fff"/>
          </g>
          <path id="Trazado_665727" data-name="Trazado 665727" d="M173.8,117.66v-9.51a6,6,0,0,1,.9-2.93l3.72,2.15a5.94,5.94,0,0,0-.87,2.91v9.56Z" opacity="0.15"/>
          <path id="Trazado_665728" data-name="Trazado 665728" d="M243.67,72.86a4.35,4.35,0,0,0-1.65,3.5c0,1.4.74,2.12,1.65,1.59a4.38,4.38,0,0,0,1.65-3.5C245.32,73,244.58,72.33,243.67,72.86Z" fill="#455a64"/>
          <path id="Trazado_665729" data-name="Trazado 665729" d="M249.62,69.41a4.38,4.38,0,0,0-1.65,3.5c0,1.41.74,2.12,1.65,1.6a4.36,4.36,0,0,0,1.66-3.5C251.28,69.6,250.54,68.89,249.62,69.41Z" fill="#455a64"/>
          <path id="Trazado_665730" data-name="Trazado 665730" d="M255.57,66a4.38,4.38,0,0,0-1.65,3.5c0,1.41.74,2.12,1.65,1.59a4.33,4.33,0,0,0,1.66-3.5C257.23,66.16,256.49,65.44,255.57,66Z" fill="#455a64"/>
          <path id="Trazado_665731" data-name="Trazado 665731" d="M178.62,233.93l-.37-.21a10.319,10.319,0,0,0-.9-.51h0l-.49-.28h0l-.76-.44-.65-.37-.36-.2a1.48,1.48,0,0,1-.5-.4,2.17,2.17,0,0,1-.4-.6,3.63,3.63,0,0,1-.33-1.54V117.65l3.73,2.19V231.47a4.45,4.45,0,0,0,.31,1.48,2.37,2.37,0,0,0,.54.77.44.44,0,0,0,.16.14Z" fill="#37474f"/>
        </g>
        <g id="freepik--Code--inject-53">
          <path id="Trazado_665732" data-name="Trazado 665732" d="M184.87,123.9a.89.89,0,0,1,.11-.4l1.56-3.24a.25.25,0,0,1,.07-.09h0a.09.09,0,0,1,.13,0,.21.21,0,0,1,.05.15v1.09a1.581,1.581,0,0,1,0,.34.884.884,0,0,1-.11.29l-.83,1.71.83.76a.62.62,0,0,1,.11.17,1.05,1.05,0,0,1,0,.3V126a.591.591,0,0,1-.05.22.39.39,0,0,1-.13.15h-.07L185,125a.31.31,0,0,1-.11-.27Z" fill="#88b1d1"/>
          <path id="Trazado_665733" data-name="Trazado 665733" d="M190.59,115.79a1.52,1.52,0,0,1,.11-.32.59.59,0,0,1,.23-.24l.59-.34h.12a.17.17,0,0,1,.05.15.49.49,0,0,1,0,.12L189,126.59a1.45,1.45,0,0,1-.11.31.55.55,0,0,1-.24.26l-.56.33a.1.1,0,0,1-.12,0,.21.21,0,0,1-.06-.16.74.74,0,0,1,0-.12Z" fill="#88b1d1"/>
          <path id="Trazado_665734" data-name="Trazado 665734" d="M194.73,119a.93.93,0,0,1-.11.41l-1.56,3.23-.07.1h0a.12.12,0,0,1-.13,0,.23.23,0,0,1,0-.16v-1.09a1.421,1.421,0,0,1,0-.33,1.7,1.7,0,0,1,.12-.3l.82-1.71-.82-.75a.59.59,0,0,1-.12-.17,1.051,1.051,0,0,1,0-.3v-1.09a.63.63,0,0,1,0-.22.39.39,0,0,1,.13-.15h0a.06.06,0,0,1,.07,0l1.56,1.43a.33.33,0,0,1,.11.28Z" fill="#88b1d1"/>
          <path id="Trazado_665735" data-name="Trazado 665735" d="M199.07,118.26a.13.13,0,0,1,.16,0,.28.28,0,0,1,.06.2v1.19a.66.66,0,0,1-.06.27.52.52,0,0,1-.16.19l-.73.42a.11.11,0,0,1-.15,0,.22.22,0,0,1-.07-.19v-1.2a.54.54,0,0,1,.07-.27.35.35,0,0,1,.15-.18Z" fill="#88b1d1"/>
          <path id="Trazado_665736" data-name="Trazado 665736" d="M201.54,116.84a.12.12,0,0,1,.15,0,.28.28,0,0,1,.06.2v1.19a.66.66,0,0,1-.06.27.35.35,0,0,1-.15.18l-.74.43a.12.12,0,0,1-.15,0,.28.28,0,0,1-.06-.2v-1.19a.66.66,0,0,1,.06-.27.42.42,0,0,1,.15-.19Z" fill="#88b1d1"/>
          <path id="Trazado_665737" data-name="Trazado 665737" d="M204,115.42a.12.12,0,0,1,.16,0,.25.25,0,0,1,.06.19v1.2a.66.66,0,0,1-.06.27.41.41,0,0,1-.16.18l-.73.43a.12.12,0,0,1-.15,0,.24.24,0,0,1-.07-.2V116.3a.54.54,0,0,1,.07-.27.42.42,0,0,1,.15-.19Z" fill="#88b1d1"/>
          <path id="Trazado_665738" data-name="Trazado 665738" d="M185.53,132.62,236,103.5c.42-.24.77-.07.77.39a1.66,1.66,0,0,1-.77,1.28l-50.44,29.12c-.43.25-.77.08-.77-.39a1.65,1.65,0,0,1,.74-1.28Z" fill="#88b1d1"/>
          <path id="Trazado_665739" data-name="Trazado 665739" d="M197.12,146l50.44-29.12c.42-.24.77-.07.77.39a1.68,1.68,0,0,1-.77,1.29l-50.44,29.12c-.43.24-.77.07-.77-.39a1.65,1.65,0,0,1,.77-1.29Z" fill="#f28f8f"/>
          <path id="Trazado_665740" data-name="Trazado 665740" d="M197.12,152.7l31.6-18.24c.43-.25.77-.08.77.39a1.65,1.65,0,0,1-.77,1.28l-31.6,18.24c-.43.24-.77.07-.77-.39A1.63,1.63,0,0,1,197.12,152.7Z" fill="#f28f8f"/>
          <path id="Trazado_665741" data-name="Trazado 665741" d="M197.12,159.39l31.6-18.24c.43-.25.77-.07.77.39a1.65,1.65,0,0,1-.77,1.28l-31.6,18.24c-.43.25-.77.07-.77-.39A1.63,1.63,0,0,1,197.12,159.39Z" fill="#f28f8f"/>
          <path id="Trazado_665742" data-name="Trazado 665742" d="M239,101.77l14.39-8.34c.43-.24.77-.07.77.39a1.65,1.65,0,0,1-.77,1.29L239,103.45c-.43.24-.77.07-.77-.39a1.65,1.65,0,0,1,.77-1.29Z" fill="#88b1d1"/>
          <path id="Trazado_665743" data-name="Trazado 665743" d="M198,199.11l38-22c.42-.25.77-.07.77.39a1.68,1.68,0,0,1-.77,1.28l-38,22c-.43.24-.77.07-.77-.39A1.67,1.67,0,0,1,198,199.11Z" fill="#88b1d1"/>
          <path id="Trazado_665744" data-name="Trazado 665744" d="M239,175.37,253.35,167c.43-.25.77-.07.77.39a1.63,1.63,0,0,1-.77,1.28L239,177c-.43.25-.77.07-.77-.39a1.65,1.65,0,0,1,.77-1.24Z" fill="#88b1d1"/>
          <path id="Trazado_665745" data-name="Trazado 665745" d="M204.45,175.19l48.9-28.2c.43-.24.77-.07.77.39a1.65,1.65,0,0,1-.77,1.29l-48.9,28.2c-.42.24-.77.07-.77-.4a1.68,1.68,0,0,1,.77-1.28Z" fill="#88b1d1"/>
          <path id="Trazado_665746" data-name="Trazado 665746" d="M192.18,189.2l61.17-35.52c.43-.24.77-.07.77.39a1.65,1.65,0,0,1-.77,1.29l-61.17,35.51c-.42.25-.77.07-.77-.39a1.66,1.66,0,0,1,.77-1.28Z" fill="#88b1d1"/>
          <path id="Trazado_665747" data-name="Trazado 665747" d="M195.06,194.11,236,170.41c.42-.24.77-.07.77.39a1.68,1.68,0,0,1-.77,1.29l-40.91,23.7c-.43.24-.77.07-.77-.39a1.65,1.65,0,0,1,.74-1.29Z" fill="#ffa8a7"/>
          <path id="Trazado_665748" data-name="Trazado 665748" d="M192.18,182.26l8.09-4.67c.42-.25.77-.07.77.39a1.66,1.66,0,0,1-.77,1.28l-8.09,4.67c-.42.25-.77.07-.77-.39a1.63,1.63,0,0,1,.77-1.28Z" fill="#88b1d1"/>
          <path id="Trazado_665749" data-name="Trazado 665749" d="M185.53,139.33l35.38-20.44c.43-.25.78-.07.78.39a1.64,1.64,0,0,1-.78,1.28L185.53,141c-.43.25-.77.07-.77-.39A1.63,1.63,0,0,1,185.53,139.33Z" fill="#88b1d1"/>
          <path id="Trazado_665750" data-name="Trazado 665750" d="M185.53,139.33l35.38-20.44c.43-.25.78-.07.78.39a1.64,1.64,0,0,1-.78,1.28L185.53,141c-.43.25-.77.07-.77-.39A1.63,1.63,0,0,1,185.53,139.33Z" fill="#fff" opacity="0.6"/>
          <path id="Trazado_665751" data-name="Trazado 665751" d="M185.53,146l7.15-4.13c.42-.25.77-.08.77.39a1.68,1.68,0,0,1-.77,1.28l-7.15,4.13c-.43.25-.77.07-.77-.39A1.63,1.63,0,0,1,185.53,146Z" fill="#88b1d1"/>
          <path id="Trazado_665752" data-name="Trazado 665752" d="M185.53,146l7.15-4.13c.42-.25.77-.08.77.39a1.68,1.68,0,0,1-.77,1.28l-7.15,4.13c-.43.25-.77.07-.77-.39A1.63,1.63,0,0,1,185.53,146Z" fill="#fff" opacity="0.6"/>
          <path id="Trazado_665753" data-name="Trazado 665753" d="M185.53,152.7l7.15-4.13c.42-.25.77-.07.77.39a1.68,1.68,0,0,1-.77,1.28l-7.15,4.13c-.43.25-.77.07-.77-.39A1.63,1.63,0,0,1,185.53,152.7Z" fill="#88b1d1"/>
          <path id="Trazado_665754" data-name="Trazado 665754" d="M185.53,152.7l7.15-4.13c.42-.25.77-.07.77.39a1.68,1.68,0,0,1-.77,1.28l-7.15,4.13c-.43.25-.77.07-.77-.39A1.63,1.63,0,0,1,185.53,152.7Z" fill="#fff" opacity="0.6"/>
          <path id="Trazado_665755" data-name="Trazado 665755" d="M185.53,159.39l7.15-4.13c.42-.25.77-.07.77.39a1.68,1.68,0,0,1-.77,1.28l-7.15,4.13c-.43.25-.77.07-.77-.39a1.65,1.65,0,0,1,.77-1.28Z" fill="#88b1d1"/>
          <path id="Trazado_665756" data-name="Trazado 665756" d="M185.53,159.39l7.15-4.13c.42-.25.77-.07.77.39a1.68,1.68,0,0,1-.77,1.28l-7.15,4.13c-.43.25-.77.07-.77-.39a1.65,1.65,0,0,1,.77-1.28Z" fill="#fff" opacity="0.6"/>
          <path id="Trazado_665757" data-name="Trazado 665757" d="M185.53,166.08l7.15-4.13c.42-.25.77-.07.77.39a1.68,1.68,0,0,1-.77,1.28l-7.15,4.13c-.43.25-.77.07-.77-.39a1.65,1.65,0,0,1,.77-1.28Z" fill="#88b1d1"/>
          <path id="Trazado_665758" data-name="Trazado 665758" d="M185.53,166.08l7.15-4.13c.42-.25.77-.07.77.39a1.68,1.68,0,0,1-.77,1.28l-7.15,4.13c-.43.25-.77.07-.77-.39a1.65,1.65,0,0,1,.77-1.28Z" fill="#fff" opacity="0.6"/>
          <path id="Trazado_665759" data-name="Trazado 665759" d="M197.12,206.46l31.6-18.24c.43-.25.77-.07.77.39a1.65,1.65,0,0,1-.77,1.28l-31.6,18.24c-.43.25-.77.07-.77-.39a1.63,1.63,0,0,1,.77-1.28Z" fill="#f28f8f"/>
          <path id="Trazado_665760" data-name="Trazado 665760" d="M197.12,213.15l31.6-18.24c.43-.25.77-.07.77.39a1.63,1.63,0,0,1-.77,1.28l-31.6,18.24c-.43.25-.77.07-.77-.39a1.65,1.65,0,0,1,.77-1.28Z" fill="#f28f8f"/>
          <path id="Trazado_665761" data-name="Trazado 665761" d="M233.32,185.56l19.86-11.43c.43-.24.77-.07.77.39a1.65,1.65,0,0,1-.77,1.29l-19.86,11.42c-.42.25-.77.07-.77-.39a1.66,1.66,0,0,1,.77-1.28Z" fill="#f28f8f"/>
          <path id="Trazado_665762" data-name="Trazado 665762" d="M233.32,192.25l19.86-11.43c.43-.24.77-.07.77.4a1.65,1.65,0,0,1-.77,1.28l-19.86,11.42c-.42.25-.77.07-.77-.39a1.68,1.68,0,0,1,.77-1.28Z" fill="#f28f8f"/>
          <path id="Trazado_665763" data-name="Trazado 665763" d="M185.53,213.15l7.15-4.13c.42-.25.77-.07.77.39a1.66,1.66,0,0,1-.77,1.28l-7.15,4.13c-.43.25-.77.08-.77-.39a1.65,1.65,0,0,1,.77-1.28Z" fill="#88b1d1"/>
          <path id="Trazado_665764" data-name="Trazado 665764" d="M185.53,213.15l7.15-4.13c.42-.25.77-.07.77.39a1.66,1.66,0,0,1-.77,1.28l-7.15,4.13c-.43.25-.77.08-.77-.39a1.65,1.65,0,0,1,.77-1.28Z" fill="#fff" opacity="0.6"/>
          <path id="Trazado_665765" data-name="Trazado 665765" d="M185.53,219.84l7.15-4.13c.42-.24.77-.07.77.39a1.66,1.66,0,0,1-.77,1.28l-7.15,4.14c-.43.24-.77.07-.77-.39a1.65,1.65,0,0,1,.77-1.29Z" fill="#88b1d1"/>
          <path id="Trazado_665766" data-name="Trazado 665766" d="M185.53,219.84l7.15-4.13c.42-.24.77-.07.77.39a1.66,1.66,0,0,1-.77,1.28l-7.15,4.14c-.43.24-.77.07-.77-.39a1.65,1.65,0,0,1,.77-1.29Z" fill="#fff" opacity="0.6"/>
          <path id="Trazado_665767" data-name="Trazado 665767" d="M223.91,117.16l9.16-5.27c.42-.25.77-.07.77.39a1.66,1.66,0,0,1-.77,1.28l-9.16,5.27c-.43.25-.78.08-.78-.39a1.66,1.66,0,0,1,.78-1.28Z" fill="#88b1d1"/>
          <path id="Trazado_665768" data-name="Trazado 665768" d="M223.91,117.16l9.16-5.27c.42-.25.77-.07.77.39a1.66,1.66,0,0,1-.77,1.28l-9.16,5.27c-.43.25-.78.08-.78-.39a1.66,1.66,0,0,1,.78-1.28Z" fill="#fff" opacity="0.6"/>
          <path id="Trazado_665769" data-name="Trazado 665769" d="M196.57,166.34l44.63-25.73c.42-.25.77-.07.77.39a1.66,1.66,0,0,1-.77,1.28L196.57,168c-.42.25-.77.07-.77-.39A1.66,1.66,0,0,1,196.57,166.34Z" fill="#ffa8a7"/>
          <path id="Trazado_665770" data-name="Trazado 665770" d="M185.53,179.57l67.82-39.26c.43-.25.77-.07.77.39a1.63,1.63,0,0,1-.77,1.28l-67.82,39.26c-.43.25-.77.07-.77-.39a1.63,1.63,0,0,1,.77-1.28Z" fill="#ffa8a7"/>
          <path id="Trazado_665771" data-name="Trazado 665771" d="M244.19,138.88l9.16-5.27c.43-.25.77-.07.77.39a1.63,1.63,0,0,1-.77,1.28l-9.16,5.28c-.43.24-.77.07-.77-.4a1.65,1.65,0,0,1,.77-1.28Z" fill="#ffa8a7"/>
          <path id="Trazado_665772" data-name="Trazado 665772" d="M197.12,139.32l35.38-20.44c.43-.25.78-.07.78.39a1.66,1.66,0,0,1-.78,1.28L197.12,141c-.43.25-.78.07-.78-.39A1.64,1.64,0,0,1,197.12,139.32Z" fill="#88b1d1"/>
          <path id="Trazado_665773" data-name="Trazado 665773" d="M197.12,139.32l35.38-20.44c.43-.25.78-.07.78.39a1.66,1.66,0,0,1-.78,1.28L197.12,141c-.43.25-.78.07-.78-.39A1.64,1.64,0,0,1,197.12,139.32Z" fill="#fff" opacity="0.6"/>
          <path id="Trazado_665774" data-name="Trazado 665774" d="M235.5,117.15l9.16-5.27c.42-.25.77-.08.77.39a1.68,1.68,0,0,1-.77,1.28l-9.16,5.27c-.43.25-.78.07-.78-.39a1.66,1.66,0,0,1,.78-1.28Z" fill="#88b1d1"/>
          <path id="Trazado_665775" data-name="Trazado 665775" d="M235.5,117.15l9.16-5.27c.42-.25.77-.08.77.39a1.68,1.68,0,0,1-.77,1.28l-9.16,5.27c-.43.25-.78.07-.78-.39a1.66,1.66,0,0,1,.78-1.28Z" fill="#fff" opacity="0.6"/>
        </g>
      </g>
      <g id="freepik--program-window--inject-53">
        <g id="freepik--window--inject-53-4" data-name="freepik--window--inject-53">
          <g id="freepik--window--inject-53-5" data-name="freepik--window--inject-53">
            <path id="Trazado_665776" data-name="Trazado 665776" d="M260.3,275.75a1.33,1.33,0,0,0,.65-.19L391.63,200a5.44,5.44,0,0,0,2.43-4.2V99.34c0-.91-.38-1.45-1-1.45a2,2,0,0,0-1,.3L261.39,173.68a5.47,5.47,0,0,0-2.43,4.2v95.85a2.69,2.69,0,0,0,.42,1.48,1.15,1.15,0,0,0,.92.54Z" fill="#fafafa"/>
            <path id="Trazado_665777" data-name="Trazado 665777" d="M256.25,274.11,259.5,276a2.71,2.71,0,0,1-1-2.22V186.55l-3.39-2V271.8a2.56,2.56,0,0,0,1.14,2.31Z" fill="#ebebeb"/>
          </g>
          <path id="freepik--outline--inject-53-2" data-name="freepik--outline--inject-53" d="M393,98.34c.5,0,.57.62.57,1v96.49a5,5,0,0,1-2.2,3.81L260.72,275.17a.87.87,0,0,1-.43.14c-.47,0-.88-.74-.88-1.58V177.88a5,5,0,0,1,2.2-3.81L392.3,98.58a1.5,1.5,0,0,1,.74-.24m0-.89a2.32,2.32,0,0,0-1.18.36L261.17,173.29a5.85,5.85,0,0,0-2.65,4.59v95.85c0,1.34.74,2.47,1.77,2.47a1.82,1.82,0,0,0,.88-.25l130.68-75.53a5.85,5.85,0,0,0,2.65-4.59V99.34c0-1.2-.59-1.89-1.46-1.89Z" fill="#e0e0e0"/>
          <g id="freepik--up-bar--inject-53-2" data-name="freepik--up-bar--inject-53">
            <path id="Trazado_665778" data-name="Trazado 665778" d="M394.5,99.28V108l-136,78.54-3.39-2V176a5.37,5.37,0,0,1,.81-2.65,5.22,5.22,0,0,1,1.84-1.94L388.47,95.89a1.88,1.88,0,0,1,1.93-.16c.49.3,2.81,1.62,3.28,1.86a.72.72,0,0,1,.2.14,1,1,0,0,1,.21.21,1.24,1.24,0,0,1,.17.27,1,1,0,0,1,.13.32,1.9,1.9,0,0,1,.08.36h0a2.217,2.217,0,0,1,.03.39Z" fill="#88b1d1"/>
            <path id="Trazado_665779" data-name="Trazado 665779" d="M394.5,99.28V108l-136,78.54-3.39-2V176a5.37,5.37,0,0,1,.81-2.65,5.22,5.22,0,0,1,1.84-1.94L388.47,95.89a1.88,1.88,0,0,1,1.93-.16c.49.3,2.81,1.62,3.28,1.86a.72.72,0,0,1,.2.14,1,1,0,0,1,.21.21,1.24,1.24,0,0,1,.17.27,1,1,0,0,1,.13.32,1.9,1.9,0,0,1,.08.36h0a2.217,2.217,0,0,1,.03.39Z" opacity="0.15"/>
            <path id="Trazado_665780" data-name="Trazado 665780" d="M394.5,99.28V108l-136,78.54v-8.67a4.64,4.64,0,0,1,.32-1.64.817.817,0,0,1,.11-.28,5.262,5.262,0,0,1,.36-.71,5.33,5.33,0,0,1,1.86-2l130.7-75.43a1.76,1.76,0,0,1,2-.08,1,1,0,0,1,.21.21,1.24,1.24,0,0,1,.17.27,1,1,0,0,1,.13.32,1.9,1.9,0,0,1,.08.36h0a2.225,2.225,0,0,1,.06.39Z" fill="#88b1d1"/>
            <path id="Trazado_665781" data-name="Trazado 665781" d="M377.43,110a4.38,4.38,0,0,0-1.65,3.5c0,1.41.74,2.12,1.65,1.59a4.33,4.33,0,0,0,1.66-3.5C379.09,110.21,378.35,109.49,377.43,110Z" fill="#fafafa"/>
            <path id="Trazado_665782" data-name="Trazado 665782" d="M383.39,106.58a4.34,4.34,0,0,0-1.66,3.5c0,1.4.74,2.12,1.66,1.59a4.37,4.37,0,0,0,1.65-3.5C385,106.76,384.3,106.05,383.39,106.58Z" fill="#fafafa"/>
            <path id="Trazado_665783" data-name="Trazado 665783" d="M389.34,103.14a4.35,4.35,0,0,0-1.65,3.5c0,1.4.74,2.11,1.65,1.59a4.38,4.38,0,0,0,1.65-3.5C391,103.32,390.25,102.61,389.34,103.14Z" fill="#fafafa"/>
            <path id="Trazado_665784" data-name="Trazado 665784" d="M391.86,97.81,261.17,173.29a5.55,5.55,0,0,0-1.87,2l-3.36-1.95a5.12,5.12,0,0,1,1.84-1.93L388.47,95.89a1.88,1.88,0,0,1,1.93-.16c.47.29,2.67,1.54,3.23,1.84a1.93,1.93,0,0,0-1.77.24Z" fill="#88b1d1"/>
            <g id="Grupo_895366" data-name="Grupo 895366" opacity="0.5">
              <path id="Trazado_665785" data-name="Trazado 665785" d="M391.86,97.81,261.17,173.29a5.55,5.55,0,0,0-1.87,2l-3.36-1.95a5.12,5.12,0,0,1,1.84-1.93L388.47,95.89a1.88,1.88,0,0,1,1.93-.16c.47.29,2.67,1.54,3.23,1.84a1.93,1.93,0,0,0-1.77.24Z" fill="#fff"/>
            </g>
          </g>
        </g>
        <g id="freepik--Program--inject-53">
          <path id="Trazado_665786" data-name="Trazado 665786" d="M264.45,192.19c0,1.23.86,1.73,1.93,1.12a4.29,4.29,0,0,0,1.93-3.34c0-1.24-.86-1.73-1.93-1.12a4.3,4.3,0,0,0-1.93,3.34Z" fill="#88b1d1"/>
          <path id="Trazado_665787" data-name="Trazado 665787" d="M277.86,184.11l17.22-9.94c.57-.33,1-.09,1,.52a2.2,2.2,0,0,1-1,1.71l-17.22,9.94c-.57.33-1,.1-1-.52A2.22,2.22,0,0,1,277.86,184.11Z" fill="#e0e0e0"/>
          <path id="Trazado_665788" data-name="Trazado 665788" d="M300.79,170.7,318,160.76c.57-.33,1-.09,1,.52a2.22,2.22,0,0,1-1,1.71l-17.22,9.94c-.57.33-1,.09-1-.52A2.22,2.22,0,0,1,300.79,170.7Z" fill="#e0e0e0"/>
          <path id="Trazado_665789" data-name="Trazado 665789" d="M323.72,157.29l17.22-9.94c.57-.33,1-.1,1,.52a2.22,2.22,0,0,1-1,1.71l-17.22,9.94c-.57.33-1,.09-1-.52a2.22,2.22,0,0,1,1-1.71Z" fill="#e0e0e0"/>
          <path id="Trazado_665790" data-name="Trazado 665790" d="M346.65,143.88l17.22-9.94c.57-.33,1-.1,1,.52a2.22,2.22,0,0,1-1,1.71l-17.22,9.94c-.57.33-1,.09-1-.52A2.2,2.2,0,0,1,346.65,143.88Z" fill="#e0e0e0"/>
          <path id="Trazado_665791" data-name="Trazado 665791" d="M369.58,130.47l17.23-9.94c.56-.33,1-.1,1,.52a2.2,2.2,0,0,1-1,1.7l-17.23,9.95c-.57.33-1,.09-1-.52a2.2,2.2,0,0,1,1-1.71Z" fill="#e0e0e0"/>
          <path id="Trazado_665792" data-name="Trazado 665792" d="M266.13,203.71v1.91c0,.53.37.74.82.48l4.59-2.66a1.82,1.82,0,0,0,.82-1.42v-1.91c0-.53-.37-.74-.82-.48l-4.6,2.66a1.82,1.82,0,0,0-.81,1.42Z" fill="#88b1d1"/>
          <path id="Trazado_665793" data-name="Trazado 665793" d="M275.83,197.94l12.35-7.11c.57-.33,1-.1,1,.52a2.22,2.22,0,0,1-1,1.71l-12.35,7.1c-.57.33-1,.1-1-.52a2.2,2.2,0,0,1,1-1.7Z" fill="#e0e0e0"/>
          <path id="Trazado_665794" data-name="Trazado 665794" d="M264.45,210.34a.27.27,0,0,1-.12,0,.26.26,0,0,1-.13-.22v-8.9a.26.26,0,0,1,.13-.22l27-15.58a.26.26,0,0,1,.24,0,.24.24,0,0,1,.13.21v8.91a.23.23,0,0,1-.13.21l-27,15.59a.31.31,0,0,1-.12,0Zm.25-9v8.33l26.49-15.29V186Z" fill="#e0e0e0"/>
          <path id="Trazado_665795" data-name="Trazado 665795" d="M266.13,217.07V219c0,.52.37.73.82.47l4.59-2.65a1.82,1.82,0,0,0,.82-1.42v-1.92c0-.52-.37-.73-.82-.47l-4.6,2.66a1.82,1.82,0,0,0-.81,1.4Z" fill="#88b1d1"/>
          <path id="Trazado_665796" data-name="Trazado 665796" d="M275.83,211.29l12.35-7.1c.57-.33,1-.1,1,.52a2.2,2.2,0,0,1-1,1.7l-12.35,7.11c-.57.33-1,.09-1-.52A2.22,2.22,0,0,1,275.83,211.29Z" fill="#e0e0e0"/>
          <path id="Trazado_665797" data-name="Trazado 665797" d="M264.45,223.7a.19.19,0,0,1-.12,0,.23.23,0,0,1-.13-.21v-8.91a.24.24,0,0,1,.13-.21l27-15.58a.21.21,0,0,1,.24,0,.23.23,0,0,1,.13.21v8.91a.23.23,0,0,1-.13.21l-27,15.58A.22.22,0,0,1,264.45,223.7Zm.25-9V223l26.49-15.3v-8.33Z" fill="#e0e0e0"/>
          <path id="Trazado_665798" data-name="Trazado 665798" d="M266.13,230.43v1.9c0,.53.37.74.82.48l4.59-2.65a1.84,1.84,0,0,0,.82-1.43v-1.91c0-.52-.37-.74-.82-.47L267,229A1.84,1.84,0,0,0,266.13,230.43Z" fill="#88b1d1"/>
          <path id="Trazado_665799" data-name="Trazado 665799" d="M275.83,224.65l12.35-7.11c.57-.33,1-.09,1,.52a2.2,2.2,0,0,1-1,1.71l-12.35,7.11c-.57.32-1,.09-1-.52A2.2,2.2,0,0,1,275.83,224.65Z" fill="#e0e0e0"/>
          <path id="Trazado_665800" data-name="Trazado 665800" d="M264.45,237.05h-.12a.24.24,0,0,1-.13-.21V227.9a.23.23,0,0,1,.13-.21l27-15.59a.25.25,0,0,1,.37.22v8.9a.26.26,0,0,1-.13.22l-27,15.58A.31.31,0,0,1,264.45,237.05Zm.25-9v8.34l26.49-15.3v-8.33Z" fill="#e0e0e0"/>
          <path id="Trazado_665801" data-name="Trazado 665801" d="M266.13,243.78v1.91c0,.53.37.74.82.48l4.59-2.66a1.82,1.82,0,0,0,.82-1.42v-1.91c0-.53-.37-.74-.82-.48l-4.6,2.66a1.82,1.82,0,0,0-.81,1.42Z" fill="#88b1d1"/>
          <path id="Trazado_665802" data-name="Trazado 665802" d="M275.83,238l12.35-7.11c.57-.33,1-.1,1,.52a2.18,2.18,0,0,1-1,1.7l-12.35,7.11c-.57.33-1,.1-1-.52A2.18,2.18,0,0,1,275.83,238Z" fill="#e0e0e0"/>
          <path id="Trazado_665803" data-name="Trazado 665803" d="M264.45,250.41a.27.27,0,0,1-.12,0,.26.26,0,0,1-.13-.22v-8.9a.26.26,0,0,1,.13-.22l27-15.58a.25.25,0,0,1,.24,0,.24.24,0,0,1,.13.21v8.91a.23.23,0,0,1-.13.21l-27,15.59a.31.31,0,0,1-.12,0Zm.25-9v8.33l26.49-15.29V226.1Z" fill="#e0e0e0"/>
          <path id="Trazado_665804" data-name="Trazado 665804" d="M266.13,257.14v1.91c0,.52.37.73.82.47l4.59-2.65a1.82,1.82,0,0,0,.82-1.42v-1.92c0-.52-.37-.73-.82-.47l-4.6,2.66a1.82,1.82,0,0,0-.81,1.42Z" fill="#88b1d1"/>
          <path id="Trazado_665805" data-name="Trazado 665805" d="M275.83,251.36l12.35-7.1c.57-.33,1-.1,1,.51a2.2,2.2,0,0,1-1,1.71l-12.35,7.11c-.57.33-1,.09-1-.52A2.22,2.22,0,0,1,275.83,251.36Z" fill="#e0e0e0"/>
          <path id="Trazado_665806" data-name="Trazado 665806" d="M264.45,263.77a.19.19,0,0,1-.12,0,.23.23,0,0,1-.13-.21v-8.91a.23.23,0,0,1,.13-.21l27-15.58a.21.21,0,0,1,.24,0,.23.23,0,0,1,.13.21v8.91a.24.24,0,0,1-.13.21l-27,15.58A.22.22,0,0,1,264.45,263.77Zm.25-9v8.33l26.49-15.3v-8.33Z" fill="#e0e0e0"/>
          <g id="freepik--gear--inject-53">
            <path id="Trazado_665807" data-name="Trazado 665807" d="M302.38,214.24l28.25-16.31a4.21,4.21,0,0,0,1.9-3.29v-24.4c0-1.21-.85-1.7-1.9-1.09l-28.25,16.31a4.17,4.17,0,0,0-1.9,3.28v24.4C300.48,214.35,301.33,214.84,302.38,214.24Z" fill="#fafafa"/>
            <path id="Trazado_665808" data-name="Trazado 665808" d="M301.53,215a1.49,1.49,0,0,1-.72-.19,1.77,1.77,0,0,1-.79-1.63v-24.4a4.65,4.65,0,0,1,2.13-3.68l28.25-16.31a1.61,1.61,0,0,1,2.59,1.49v24.4a4.64,4.64,0,0,1-2.13,3.68l-28.25,16.31a2.14,2.14,0,0,1-1.08.33Zm30-45.61a1.26,1.26,0,0,0-.62.19l-28.25,16.31a3.78,3.78,0,0,0-1.67,2.89v24.4a.92.92,0,0,0,.33.83.93.93,0,0,0,.88-.13l28.25-16.31a3.77,3.77,0,0,0,1.67-2.89v-24.4a.92.92,0,0,0-.33-.83.53.53,0,0,0-.31-.1Z" fill="#e0e0e0"/>
            <path id="Trazado_665809" data-name="Trazado 665809" d="M298.75,183.71a.326.326,0,0,1-.16-.61l1-.55a.33.33,0,0,1,.45.12.34.34,0,0,1-.12.45l-.95.55a.35.35,0,0,1-.22.04Z" fill="#88b1d1"/>
            <path id="Trazado_665810" data-name="Trazado 665810" d="M301.7,182a.35.35,0,0,1-.29-.17.33.33,0,0,1,.12-.44l2-1.16a.34.34,0,0,1,.45.12.33.33,0,0,1-.12.45l-2,1.16a.47.47,0,0,1-.16.04Zm4-2.31a.326.326,0,0,1-.16-.61l2-1.15a.33.33,0,0,1,.32.57l-2,1.15a.33.33,0,0,1-.17.05Zm4-2.3a.32.32,0,0,1-.29-.17.33.33,0,0,1,.12-.45l2-1.15a.33.33,0,1,1,.33.57l-2,1.15a.33.33,0,0,1-.17.06Zm4-2.31a.36.36,0,0,1-.29-.16.33.33,0,0,1,.13-.45l2-1.16a.35.35,0,0,1,.45.12.33.33,0,0,1-.12.45l-2,1.16a.29.29,0,0,1-.19.05Zm4-2.31a.31.31,0,0,1-.28-.16.33.33,0,0,1,.12-.45l2-1.15a.33.33,0,0,1,.45.12.34.34,0,0,1-.12.45l-2,1.15a.33.33,0,0,1-.2.05Zm4-2.3a.34.34,0,0,1-.29-.17.33.33,0,0,1,.12-.44l2-1.16a.34.34,0,0,1,.45.12.33.33,0,0,1-.12.45l-2,1.16a.47.47,0,0,1-.19.05Zm4-2.31a.326.326,0,0,1-.16-.61l2-1.15a.33.33,0,0,1,.32.57l-2,1.15a.33.33,0,0,1-.2.05Zm4-2.3a.33.33,0,0,1-.17-.62l2-1.15a.33.33,0,1,1,.33.57l-2,1.15a.33.33,0,0,1-.2.06Z" fill="#88b1d1"/>
            <path id="Trazado_665811" data-name="Trazado 665811" d="M333.65,163.56a.33.33,0,0,1-.28-.16.32.32,0,0,1,.12-.45l.94-.55a.33.33,0,1,1,.33.57l-.95.55a.29.29,0,0,1-.16.04Z" fill="#88b1d1"/>
            <path id="Trazado_665812" data-name="Trazado 665812" d="M297.29,219.94a.32.32,0,0,1-.33-.32v-1.1a.33.33,0,0,1,.66,0v1.1a.32.32,0,0,1-.33.32Z" fill="#88b1d1"/>
            <path id="Trazado_665813" data-name="Trazado 665813" d="M297.29,216.75a.33.33,0,0,1-.33-.33v-2.1a.33.33,0,0,1,.66,0v2.1a.33.33,0,0,1-.33.33Zm0-4.2a.33.33,0,0,1-.33-.33v-2.1a.33.33,0,0,1,.66,0v2.1a.33.33,0,0,1-.33.33Zm0-4.21A.32.32,0,0,1,297,208v-2.11a.33.33,0,0,1,.66,0V208a.32.32,0,0,1-.37.34Zm0-4.2a.33.33,0,0,1-.33-.33v-2.1a.33.33,0,0,1,.66,0v2.1a.33.33,0,0,1-.33.33Zm0-4.2a.33.33,0,0,1-.33-.33v-2.1a.33.33,0,0,1,.66,0v2.1A.33.33,0,0,1,297.29,199.94Zm0-4.2a.33.33,0,0,1-.33-.33v-2.1a.33.33,0,0,1,.66,0v2.1a.33.33,0,0,1-.33.33Zm0-4.2a.33.33,0,0,1-.33-.33v-2.1a.33.33,0,0,1,.66,0v2.1a.33.33,0,0,1-.33.33Z" fill="#88b1d1"/>
            <path id="Trazado_665814" data-name="Trazado 665814" d="M297.29,187.33A.32.32,0,0,1,297,187v-1.1a.33.33,0,0,1,.66,0V187a.32.32,0,0,1-.37.33Z" fill="#88b1d1"/>
            <path id="Trazado_665815" data-name="Trazado 665815" d="M333.68,200.62a.36.36,0,0,1-.29-.16.34.34,0,0,1,.12-.45l.95-.55a.33.33,0,1,1,.33.57l-1,.55a.32.32,0,0,1-.11.04Z" fill="#88b1d1"/>
            <path id="Trazado_665816" data-name="Trazado 665816" d="M301.7,219.08a.31.31,0,0,1-.28-.16.32.32,0,0,1,.12-.45l2-1.15a.33.33,0,1,1,.33.57l-2,1.15a.29.29,0,0,1-.17.04Zm4-2.3a.32.32,0,0,1-.29-.17.34.34,0,0,1,.12-.45l2-1.15a.33.33,0,0,1,.33.57l-2,1.15a.33.33,0,0,1-.16.05Zm4-2.31a.33.33,0,0,1-.16-.61l2-1.16a.34.34,0,0,1,.45.12.33.33,0,0,1-.12.45l-2,1.16a.47.47,0,0,1-.18.04Zm4-2.31a.326.326,0,0,1-.16-.61l2-1.16a.33.33,0,0,1,.45.12.34.34,0,0,1-.12.45l-2,1.16a.33.33,0,0,1-.18.04Zm4-2.31a.36.36,0,0,1-.29-.16.33.33,0,0,1,.13-.45l2-1.16a.34.34,0,0,1,.45.13.33.33,0,0,1-.12.45l-2,1.15a.29.29,0,0,1-.18.04Zm4-2.31a.32.32,0,0,1-.29-.16.34.34,0,0,1,.12-.45l2-1.15a.33.33,0,1,1,.33.57l-2,1.15a.32.32,0,0,1-.17.04Zm4-2.3a.32.32,0,0,1-.28-.17.33.33,0,0,1,.12-.45l2-1.15a.33.33,0,0,1,.45.12.34.34,0,0,1-.12.45l-2,1.15a.34.34,0,0,1-.19.05Zm4-2.31a.33.33,0,0,1-.16-.61l2-1.16a.34.34,0,0,1,.45.12.33.33,0,0,1-.13.45l-2,1.16a.53.53,0,0,1-.18.04Z" fill="#88b1d1"/>
            <path id="Trazado_665817" data-name="Trazado 665817" d="M298.75,220.79a.32.32,0,0,1-.28-.17.33.33,0,0,1,.12-.45l1-.55a.34.34,0,0,1,.45.13.33.33,0,0,1-.12.44l-.95.55a.37.37,0,0,1-.22.05Z" fill="#88b1d1"/>
            <path id="Trazado_665818" data-name="Trazado 665818" d="M336.09,164.94a.33.33,0,0,1-.33-.33v-1.1a.33.33,0,0,1,.66,0v1.1A.33.33,0,0,1,336.09,164.94Z" fill="#88b1d1"/>
            <path id="Trazado_665819" data-name="Trazado 665819" d="M336.09,194.35a.33.33,0,0,1-.33-.33v-2.1a.33.33,0,0,1,.66,0V194a.33.33,0,0,1-.33.35Zm0-4.2a.33.33,0,0,1-.33-.33v-2.1a.33.33,0,0,1,.66,0v2.1a.33.33,0,0,1-.33.33Zm0-4.21a.32.32,0,0,1-.33-.32v-2.11a.33.33,0,0,1,.66,0v2.11a.32.32,0,0,1-.33.32Zm0-4.2a.33.33,0,0,1-.33-.33v-2.1a.33.33,0,0,1,.66,0v2.1a.33.33,0,0,1-.33.33Zm0-4.2a.33.33,0,0,1-.33-.33v-2.1a.33.33,0,0,1,.66,0v2.1A.33.33,0,0,1,336.09,177.54Zm0-4.2a.33.33,0,0,1-.33-.33v-2.1a.33.33,0,0,1,.66,0V173a.33.33,0,0,1-.33.34Zm0-4.2a.33.33,0,0,1-.33-.33v-2.1a.33.33,0,0,1,.66,0v2.1a.33.33,0,0,1-.33.33Z" fill="#88b1d1"/>
            <path id="Trazado_665820" data-name="Trazado 665820" d="M336.09,197.54a.32.32,0,0,1-.33-.32v-1.1a.33.33,0,0,1,.66,0v1.1a.32.32,0,0,1-.33.32Z" fill="#88b1d1"/>
            <path id="Trazado_665821" data-name="Trazado 665821" d="M334.63,164.68a.33.33,0,0,1-.17,0,.34.34,0,0,1-.16-.29V161a.33.33,0,0,1,.16-.28l2.92-1.69a.33.33,0,0,1,.33,0,.34.34,0,0,1,.17.29v3.37a.33.33,0,0,1-.17.28l-2.92,1.69a.32.32,0,0,1-.16.02Zm.33-3.51v2.61l2.26-1.3v-2.61Z" fill="#88b1d1"/>
            <path id="Trazado_665822" data-name="Trazado 665822" d="M334.63,201.76a.47.47,0,0,1-.17,0,.34.34,0,0,1-.16-.29V198.1a.34.34,0,0,1,.16-.29l2.92-1.68a.335.335,0,0,1,.5.28v3.37a.34.34,0,0,1-.17.29l-2.92,1.69a.47.47,0,0,1-.16,0Zm.33-3.51v2.61l2.26-1.31v-2.61Z" fill="#88b1d1"/>
            <path id="Trazado_665823" data-name="Trazado 665823" d="M295.83,187.08a.32.32,0,0,1-.16,0,.34.34,0,0,1-.17-.29v-3.37a.33.33,0,0,1,.17-.28l2.92-1.69a.32.32,0,0,1,.33,0,.34.34,0,0,1,.16.29v3.37a.33.33,0,0,1-.16.28L296,187a.33.33,0,0,1-.17.08Zm.33-3.51v2.61l2.26-1.3v-2.62Z" fill="#88b1d1"/>
            <path id="Trazado_665824" data-name="Trazado 665824" d="M295.83,224.16a.33.33,0,0,1-.16,0,.32.32,0,0,1-.17-.28v-3.37a.34.34,0,0,1,.17-.29l2.92-1.68a.325.325,0,0,1,.49.28v3.37a.34.34,0,0,1-.16.29L296,224.11A.34.34,0,0,1,295.83,224.16Zm.33-3.51v2.61l2.26-1.31v-2.61Z" fill="#88b1d1"/>
            <path id="Trazado_665825" data-name="Trazado 665825" d="M337.56,181.59a3.53,3.53,0,0,1-1.47,2.81c-.81.47-1.47,0-1.47-1.11a3.53,3.53,0,0,1,1.47-2.81C336.9,180,337.56,180.51,337.56,181.59Z" fill="#88b1d1"/>
            <path id="Trazado_665826" data-name="Trazado 665826" d="M318.15,172.18a3.53,3.53,0,0,1-1.47,2.81c-.82.46-1.47,0-1.47-1.12a3.51,3.51,0,0,1,1.47-2.81C317.49,170.6,318.15,171.09,318.15,172.18Z" fill="#88b1d1"/>
            <path id="Trazado_665827" data-name="Trazado 665827" d="M318.15,209.25a3.53,3.53,0,0,1-1.47,2.81c-.82.47-1.47,0-1.47-1.11a3.51,3.51,0,0,1,1.47-2.81C317.49,207.67,318.15,208.17,318.15,209.25Z" fill="#88b1d1"/>
            <path id="Trazado_665828" data-name="Trazado 665828" d="M298.76,204a3.53,3.53,0,0,1-1.47,2.81c-.81.47-1.47,0-1.47-1.11a3.53,3.53,0,0,1,1.47-2.81C298.1,202.46,298.76,203,298.76,204Z" fill="#88b1d1"/>
            <path id="Trazado_665829" data-name="Trazado 665829" d="M324.11,188.42v-2.24a.15.15,0,0,0-.22-.15l-1.73.78a.2.2,0,0,1-.29-.13,3.568,3.568,0,0,0-.39-.86.48.48,0,0,1,0-.42l1.15-2.33a.24.24,0,0,0-.1-.33l-1.25-.73a.27.27,0,0,0-.35.08l-1.44,2.17a.45.45,0,0,1-.37.18,4.49,4.49,0,0,0-.94.1.21.21,0,0,1-.26-.19l-.19-1.88a.15.15,0,0,0-.23-.13l-2,1.13a.52.52,0,0,0-.23.36l-.19,2.17a.78.78,0,0,1-.21.4,11.7,11.7,0,0,0-1.08,1.14.34.34,0,0,1-.38.11l-1.25-.43a.29.29,0,0,0-.35.13l-1.43,2.47a.3.3,0,0,0,.06.37l1,.87a.34.34,0,0,1,.1.38,12.346,12.346,0,0,0-.45,1.51.75.75,0,0,1-.25.38l-1.77,1.25a.51.51,0,0,0-.2.38v2.25a.15.15,0,0,0,.22.14l1.73-.78a.2.2,0,0,1,.29.13,4,4,0,0,0,.38.86.48.48,0,0,1,0,.42l-1.15,2.33a.26.26,0,0,0,.1.34l1.25.72a.27.27,0,0,0,.35-.08l1.43-2.16a.46.46,0,0,1,.38-.19,3.909,3.909,0,0,0,.94-.1.21.21,0,0,1,.26.19l.19,1.89a.14.14,0,0,0,.23.12l2-1.13a.52.52,0,0,0,.23-.36l.19-2.16a.77.77,0,0,1,.21-.41,11.7,11.7,0,0,0,1.08-1.14.34.34,0,0,1,.38-.11l1.25.43a.3.3,0,0,0,.35-.13l1.43-2.47a.3.3,0,0,0-.06-.37l-1-.86a.37.37,0,0,1-.09-.39,14.392,14.392,0,0,0,.45-1.51.68.68,0,0,1,.25-.37l1.77-1.26A.5.5,0,0,0,324.11,188.42Zm-7.61,7.07c-1.81,1-3.28.19-3.28-1.9a7.25,7.25,0,0,1,3.28-5.69c1.82-1.05,3.29-.2,3.29,1.89a7.27,7.27,0,0,1-3.29,5.7Z" fill="#88b1d1"/>
          </g>
          <g id="freepik--gear--inject-53-2" data-name="freepik--gear--inject-53">
            <path id="Trazado_665830" data-name="Trazado 665830" d="M352.34,185.47l28.25-16.31a4.21,4.21,0,0,0,1.89-3.29V141.48c0-1.21-.85-1.7-1.89-1.1l-28.25,16.31a4.21,4.21,0,0,0-1.9,3.29v24.4C350.44,185.59,351.29,186.08,352.34,185.47Z" fill="#fafafa"/>
            <path id="Trazado_665831" data-name="Trazado 665831" d="M351.49,186.19a1.42,1.42,0,0,1-.73-.19,1.77,1.77,0,0,1-.78-1.62V160a4.63,4.63,0,0,1,2.13-3.69L380.36,140a1.6,1.6,0,0,1,2.58,1.5v24.39a4.65,4.65,0,0,1-2.12,3.69l-28.25,16.31a2.25,2.25,0,0,1-1.08.3Zm29.94-45.61a1.25,1.25,0,0,0-.61.2l-28.25,16.31A3.72,3.72,0,0,0,350.9,160v24.4a1,1,0,0,0,.32.83.93.93,0,0,0,.89-.14l28.25-16.31a3.74,3.74,0,0,0,1.66-2.89V141.48a.91.91,0,0,0-.32-.83A.5.5,0,0,0,381.43,140.58Z" fill="#e0e0e0"/>
            <path id="Trazado_665832" data-name="Trazado 665832" d="M348.71,155a.35.35,0,0,1-.29-.17.34.34,0,0,1,.12-.45l.95-.55a.35.35,0,0,1,.45.12.33.33,0,0,1-.12.45l-.95.55A.33.33,0,0,1,348.71,155Z" fill="#88b1d1"/>
            <path id="Trazado_665833" data-name="Trazado 665833" d="M351.65,153.24a.31.31,0,0,1-.28-.16.33.33,0,0,1,.12-.45l2-1.15a.33.33,0,0,1,.45.12.34.34,0,0,1-.12.45l-2,1.15a.33.33,0,0,1-.17.04Zm4-2.3a.35.35,0,0,1-.29-.17.33.33,0,0,1,.12-.44l2-1.16a.34.34,0,0,1,.45.12.33.33,0,0,1-.12.45l-2,1.16A.469.469,0,0,1,355.65,150.94Zm4-2.31a.326.326,0,0,1-.16-.61l2-1.15a.33.33,0,1,1,.32.57l-2,1.15a.329.329,0,0,1-.17.04Zm4-2.3a.33.33,0,0,1-.17-.62l2-1.15a.33.33,0,1,1,.33.57l-2,1.15a.33.33,0,0,1-.17.05Zm4-2.31a.33.33,0,0,1-.28-.16.32.32,0,0,1,.12-.45l2-1.16a.35.35,0,0,1,.45.12.33.33,0,0,1-.12.45l-2,1.16a.29.29,0,0,1-.19.02Zm4-2.31a.31.31,0,0,1-.28-.16.33.33,0,0,1,.12-.45l2-1.15a.33.33,0,0,1,.45.12.34.34,0,0,1-.12.45l-2,1.15a.33.33,0,0,1-.2.04Zm4-2.3a.35.35,0,0,1-.29-.17.34.34,0,0,1,.12-.45l2-1.15a.33.33,0,0,1,.33.57l-2,1.15a.3.3,0,0,1-.19.05Zm4-2.31a.326.326,0,0,1-.16-.61l2-1.15a.33.33,0,0,1,.45.12.34.34,0,0,1-.13.45l-2,1.15a.33.33,0,0,1-.2.04Z" fill="#88b1d1"/>
            <path id="Trazado_665834" data-name="Trazado 665834" d="M383.61,134.8a.32.32,0,0,1-.29-.17.34.34,0,0,1,.12-.45l.95-.54a.33.33,0,0,1,.33.57l-1,.54a.331.331,0,0,1-.11.05Z" fill="#88b1d1"/>
            <path id="Trazado_665835" data-name="Trazado 665835" d="M347.25,191.18a.33.33,0,0,1-.33-.33v-1.09a.33.33,0,1,1,.66,0v1.09a.33.33,0,0,1-.33.33Z" fill="#88b1d1"/>
            <path id="Trazado_665836" data-name="Trazado 665836" d="M347.25,188a.33.33,0,0,1-.33-.33v-2.1a.33.33,0,1,1,.66,0v2.1A.33.33,0,0,1,347.25,188Zm0-4.2a.33.33,0,0,1-.33-.33v-2.1a.33.33,0,0,1,.66,0v2.1a.33.33,0,0,1-.33.31Zm0-4.2a.33.33,0,0,1-.33-.33v-2.1a.33.33,0,1,1,.66,0v2.1a.33.33,0,0,1-.33.31Zm0-4.2a.33.33,0,0,1-.33-.33V173a.33.33,0,1,1,.66,0v2.1a.33.33,0,0,1-.33.28Zm0-4.2a.33.33,0,0,1-.33-.33v-2.1a.33.33,0,0,1,.66,0v2.1a.33.33,0,0,1-.33.31Zm0-4.21a.32.32,0,0,1-.33-.32v-2.11a.33.33,0,1,1,.66,0v2.11a.32.32,0,0,1-.33.33Zm0-4.2a.33.33,0,0,1-.33-.33v-2.1a.33.33,0,1,1,.66,0v2.1a.33.33,0,0,1-.33.31Z" fill="#88b1d1"/>
            <path id="Trazado_665837" data-name="Trazado 665837" d="M347.25,158.57a.33.33,0,0,1-.33-.33v-1.09a.33.33,0,0,1,.66,0v1.09A.33.33,0,0,1,347.25,158.57Z" fill="#88b1d1"/>
            <path id="Trazado_665838" data-name="Trazado 665838" d="M383.64,171.86a.32.32,0,0,1-.29-.17.33.33,0,0,1,.12-.45l.95-.54a.329.329,0,1,1,.33.57l-.95.54a.33.33,0,0,1-.16.05Z" fill="#88b1d1"/>
            <path id="Trazado_665839" data-name="Trazado 665839" d="M351.66,190.32a.34.34,0,0,1-.29-.16.33.33,0,0,1,.12-.45l2-1.16a.33.33,0,0,1,.33.57l-2,1.16a.32.32,0,0,1-.16.04Zm4-2.31a.326.326,0,0,1-.16-.61l2-1.16a.34.34,0,0,1,.45.13.33.33,0,0,1-.12.44l-2,1.16a.33.33,0,0,1-.18.03Zm4-2.31a.31.31,0,0,1-.28-.16.33.33,0,0,1,.12-.45l2-1.15a.33.33,0,0,1,.32.57l-2,1.15a.35.35,0,0,1-.17.04Zm4-2.3a.35.35,0,0,1-.29-.17.34.34,0,0,1,.12-.45l2-1.15a.33.33,0,1,1,.33.57l-2,1.15a.33.33,0,0,1-.17.05Zm4-2.31a.32.32,0,0,1-.29-.17.33.33,0,0,1,.12-.45l2-1.15a.33.33,0,1,1,.33.57l-2,1.15a.33.33,0,0,1-.17.05Zm4-2.31a.326.326,0,0,1-.16-.61l2-1.16a.33.33,0,0,1,.45.12.34.34,0,0,1-.12.45l-2,1.16a.33.33,0,0,1-.19.04Zm4-2.31a.33.33,0,0,1-.28-.16.32.32,0,0,1,.12-.45l2-1.16a.34.34,0,0,1,.45.13.33.33,0,0,1-.12.45l-2,1.15a.29.29,0,0,1-.19.04Zm4-2.31a.32.32,0,0,1-.29-.16.34.34,0,0,1,.12-.45l2-1.15a.33.33,0,1,1,.33.57l-2,1.15a.32.32,0,0,1-.18.04Z" fill="#88b1d1"/>
            <path id="Trazado_665840" data-name="Trazado 665840" d="M348.71,192a.36.36,0,0,1-.29-.16.34.34,0,0,1,.12-.45l.95-.55a.33.33,0,0,1,.33.57l-.95.55A.32.32,0,0,1,348.71,192Z" fill="#88b1d1"/>
            <path id="Trazado_665841" data-name="Trazado 665841" d="M386,136.17a.32.32,0,0,1-.32-.33v-1.09a.33.33,0,1,1,.65,0v1.09A.33.33,0,0,1,386,136.17Z" fill="#88b1d1"/>
            <path id="Trazado_665842" data-name="Trazado 665842" d="M386,165.58a.32.32,0,0,1-.32-.33v-2.1a.33.33,0,1,1,.65,0v2.1a.32.32,0,0,1-.33.33Zm0-4.2a.32.32,0,0,1-.32-.33V159a.33.33,0,1,1,.65,0v2.1A.33.33,0,0,1,386,161.38Zm0-4.2a.32.32,0,0,1-.32-.33v-2.1a.33.33,0,1,1,.65,0v2.1A.33.33,0,0,1,386,157.18Zm0-4.2a.32.32,0,0,1-.32-.33v-2.1a.33.33,0,1,1,.65,0v2.1a.33.33,0,0,1-.33.35Zm0-4.2a.32.32,0,0,1-.32-.33v-2.1a.33.33,0,1,1,.65,0v2.1A.33.33,0,0,1,386,148.78Zm0-4.21a.32.32,0,0,1-.32-.32v-2.1a.33.33,0,1,1,.65,0v2.1a.32.32,0,0,1-.33.32Zm0-4.2a.32.32,0,0,1-.32-.33v-2.1a.33.33,0,1,1,.65,0V140a.32.32,0,0,1-.33.37Z" fill="#88b1d1"/>
            <path id="Trazado_665843" data-name="Trazado 665843" d="M386,168.78a.32.32,0,0,1-.32-.33v-1.09a.33.33,0,1,1,.65,0v1.09A.33.33,0,0,1,386,168.78Z" fill="#88b1d1"/>
            <path id="Trazado_665844" data-name="Trazado 665844" d="M384.58,135.92a.33.33,0,0,1-.16,0,.31.31,0,0,1-.16-.28v-3.37a.34.34,0,0,1,.16-.29l2.92-1.68a.325.325,0,0,1,.49.28v3.37a.34.34,0,0,1-.16.29l-2.92,1.68A.34.34,0,0,1,384.58,135.92Zm.33-3.51V135l2.27-1.31V131.1Z" fill="#88b1d1"/>
            <path id="Trazado_665845" data-name="Trazado 665845" d="M384.58,173a.32.32,0,0,1-.16,0,.33.33,0,0,1-.16-.28v-3.38a.33.33,0,0,1,.16-.28l2.92-1.69a.32.32,0,0,1,.33,0,.34.34,0,0,1,.16.29V171a.31.31,0,0,1-.16.28L384.75,173a.33.33,0,0,1-.17,0Zm.33-3.51v2.62l2.27-1.31v-2.61Z" fill="#88b1d1"/>
            <path id="Trazado_665846" data-name="Trazado 665846" d="M345.79,158.32a.34.34,0,0,1-.17,0,.32.32,0,0,1-.16-.28v-3.37a.34.34,0,0,1,.16-.29l2.92-1.68a.335.335,0,0,1,.5.28v3.37a.34.34,0,0,1-.17.29L346,158.27a.3.3,0,0,1-.21.05Zm.33-3.51v2.61l2.26-1.31V153.5Z" fill="#88b1d1"/>
            <path id="Trazado_665847" data-name="Trazado 665847" d="M345.79,195.39a.33.33,0,0,1-.17,0,.34.34,0,0,1-.16-.29v-3.37a.33.33,0,0,1,.16-.28l2.92-1.69a.32.32,0,0,1,.33,0,.34.34,0,0,1,.17.29v3.37a.33.33,0,0,1-.17.28L346,195.35A.29.29,0,0,1,345.79,195.39Zm.33-3.51v2.62l2.26-1.31v-2.61Z" fill="#88b1d1"/>
            <path id="Trazado_665848" data-name="Trazado 665848" d="M387.51,152.83a3.51,3.51,0,0,1-1.47,2.81c-.81.46-1.47,0-1.47-1.12a3.53,3.53,0,0,1,1.47-2.81C386.86,151.25,387.51,151.74,387.51,152.83Z" fill="#88b1d1"/>
            <path id="Trazado_665849" data-name="Trazado 665849" d="M368.1,143.41a3.53,3.53,0,0,1-1.47,2.81c-.81.47-1.47,0-1.47-1.11a3.53,3.53,0,0,1,1.47-2.81C367.44,141.83,368.1,142.33,368.1,143.41Z" fill="#88b1d1"/>
            <path id="Trazado_665850" data-name="Trazado 665850" d="M368.1,180.49a3.53,3.53,0,0,1-1.47,2.81c-.81.47-1.47,0-1.47-1.11a3.52,3.52,0,0,1,1.47-2.81C367.44,178.91,368.1,179.41,368.1,180.49Z" fill="#88b1d1"/>
            <path id="Trazado_665851" data-name="Trazado 665851" d="M348.72,175.28a3.53,3.53,0,0,1-1.47,2.81c-.81.46-1.47,0-1.47-1.12a3.53,3.53,0,0,1,1.47-2.81C348.06,173.7,348.72,174.19,348.72,175.28Z" fill="#88b1d1"/>
            <path id="Trazado_665852" data-name="Trazado 665852" d="M374.07,159.66v-2.25a.14.14,0,0,0-.22-.14l-1.73.78a.21.21,0,0,1-.29-.14,3.68,3.68,0,0,0-.39-.85.52.52,0,0,1,0-.42l1.16-2.33a.27.27,0,0,0-.1-.34l-1.26-.72a.26.26,0,0,0-.34.08l-1.44,2.16a.49.49,0,0,1-.38.19,3.8,3.8,0,0,0-.93.09.2.2,0,0,1-.26-.18l-.19-1.89a.15.15,0,0,0-.24-.12l-1.94,1.12a.51.51,0,0,0-.23.37l-.2,2.16a.75.75,0,0,1-.2.41,10.664,10.664,0,0,0-1.08,1.14.39.39,0,0,1-.38.11l-1.25-.44a.31.31,0,0,0-.35.13l-1.43,2.48a.3.3,0,0,0,.06.37l1,.86a.38.38,0,0,1,.1.39,10.687,10.687,0,0,0-.45,1.5.71.71,0,0,1-.25.38l-1.78,1.25a.53.53,0,0,0-.2.38v2.25c0,.14.1.2.23.14l1.73-.78a.22.22,0,0,1,.29.14,4.219,4.219,0,0,0,.38.86.48.48,0,0,1,0,.42l-1.16,2.32a.26.26,0,0,0,.11.34l1.25.72a.25.25,0,0,0,.34-.08l1.44-2.16a.5.5,0,0,1,.38-.19,3.759,3.759,0,0,0,.93-.09.2.2,0,0,1,.26.18l.19,1.89a.15.15,0,0,0,.24.12l1.94-1.12a.56.56,0,0,0,.24-.36l.19-2.17a.7.7,0,0,1,.2-.4,11.835,11.835,0,0,0,1.08-1.15.4.4,0,0,1,.39-.11l1.24.44a.32.32,0,0,0,.36-.13l1.43-2.48a.32.32,0,0,0-.07-.37l-1-.86a.39.39,0,0,1-.1-.38,10.815,10.815,0,0,0,.45-1.51.75.75,0,0,1,.25-.38l1.78-1.25a.53.53,0,0,0,.2-.38Zm-7.61,7.06c-1.81,1.05-3.29.2-3.29-1.9a7.29,7.29,0,0,1,3.29-5.69c1.82-1,3.29-.2,3.29,1.9a7.26,7.26,0,0,1-3.29,5.69Z" fill="#88b1d1"/>
          </g>
          <path id="Trazado_665853" data-name="Trazado 665853" d="M295.3,243.34V232.5a4.56,4.56,0,0,1,2.05-3.56l88.43-51.05c1.13-.66,2.05-.13,2.05,1.18v10.84a4.56,4.56,0,0,1-2.05,3.56l-88.43,51.05C296.22,245.18,295.3,244.65,295.3,243.34Z" fill="#e0e0e0"/>
        </g>
      </g>
      <path id="freepik--shadow--inject-53" d="M75.05,258.47,46.41,275a2.54,2.54,0,0,0-1.15,2v34.53c0,.73.52,1,1.15.66l28.64-16.5a2.56,2.56,0,0,0,1.15-2V259.13C76.2,258.4,75.68,258.11,75.05,258.47Z" opacity="0.1"/>
      <path id="freepik--shadow--inject-53-2" data-name="freepik--shadow--inject-53" d="M66.93,189.91,45.79,202.09a1.16,1.16,0,0,0-.53.91v11.8c0,.34.24.47.53.3l21.14-12.18a1.14,1.14,0,0,0,.53-.9V190.21C67.46,189.88,67.22,189.74,66.93,189.91Z" opacity="0.1"/>
      <path id="freepik--shadow--inject-53-3" data-name="freepik--shadow--inject-53" d="M66.93,214.44,45.79,226.62a1.16,1.16,0,0,0-.53.91v11.8c0,.33.24.47.53.3l21.14-12.18a1.15,1.15,0,0,0,.53-.91v-11.8C67.46,214.41,67.22,214.27,66.93,214.44Z" opacity="0.1"/>
      <path id="freepik--shadow--inject-53-4" data-name="freepik--shadow--inject-53" d="M66.93,239,45.79,251.15a1.15,1.15,0,0,0-.53.91v11.8c0,.33.24.47.53.3L66.93,252a1.16,1.16,0,0,0,.53-.91v-11.8C67.46,238.93,67.22,238.8,66.93,239Z" opacity="0.1"/>
      <g id="freepik--Box--inject-53">
        <g id="freepik--speach-bubble--inject-53">
          <path id="Trazado_665854" data-name="Trazado 665854" d="M78.6,259.85,50,276.35a2.54,2.54,0,0,0-1.15,2v34.53a2.51,2.51,0,0,0,1.15,2l2.18,1.23a2.55,2.55,0,0,0,2.3,0l28.64-16.5a2.54,2.54,0,0,0,1.15-2V263a2.51,2.51,0,0,0-1.16-2l-2.17-1.23a2.55,2.55,0,0,0-2.34.08Z" fill="#88b1d1"/>
          <path id="Trazado_665855" data-name="Trazado 665855" d="M54.44,316.05a2.62,2.62,0,0,1-2.3,0L50,314.82a2.48,2.48,0,0,1-1.15-2V278.33a2.4,2.4,0,0,1,.37-1.17l4.45,2.58a2.31,2.31,0,0,0-.34,1.13v34.52C53.29,316.06,53.76,316.44,54.44,316.05Z" opacity="0.2"/>
          <path id="Trazado_665856" data-name="Trazado 665856" d="M84.21,262.84c-.09-.58-.56-.79-1.13-.46L54.44,278.89a2.29,2.29,0,0,0-.81.85l-4.46-2.58a2.28,2.28,0,0,1,.79-.81l28.64-16.5a2.55,2.55,0,0,1,2.3,0l2.17,1.23a2.54,2.54,0,0,1,1.14,1.76Z" fill="#fff" opacity="0.5"/>
          <path id="Trazado_665857" data-name="Trazado 665857" d="M83.08,262.38,54.44,278.89a2.53,2.53,0,0,0-1.15,2v34.52c0,.73.52,1,1.15.66l28.64-16.5a2.53,2.53,0,0,0,1.14-2V263C84.22,262.31,83.71,262,83.08,262.38Z" fill="#88b1d1"/>
        </g>
        <g id="freepik----inject-53">
          <path id="Trazado_665858" data-name="Trazado 665858" d="M55.19,296.76a1.85,1.85,0,0,1,.12-.71,5.239,5.239,0,0,1,.37-.67l6.75-10.92a.88.88,0,0,1,.11-.13l.08-.06a.19.19,0,0,1,.25,0,.45.45,0,0,1,.1.33v4.22a1.84,1.84,0,0,1-.19.88,5.508,5.508,0,0,1-.35.57l-3,4.54,3,1.16a1.488,1.488,0,0,1,.35.16c.13.08.19.3.19.65V301a1,1,0,0,1-.1.45.69.69,0,0,1-.25.3h-.08a.2.2,0,0,1-.11,0l-6.75-3.12a1,1,0,0,1-.37-.25.93.93,0,0,1-.12-.56Z" fill="#fff"/>
          <path id="Trazado_665859" data-name="Trazado 665859" d="M69.92,278.24a3.32,3.32,0,0,1,.25-.68,1.2,1.2,0,0,1,.49-.53l2.26-1.31a.21.21,0,0,1,.27,0,.46.46,0,0,1,.11.34,1.41,1.41,0,0,1,0,.25l-5.71,24.34a2.67,2.67,0,0,1-.24.66,1.21,1.21,0,0,1-.5.55l-2.22,1.28a.2.2,0,0,1-.26,0,.46.46,0,0,1-.11-.34.85.85,0,0,1,0-.25Z" fill="#fff"/>
          <path id="Trazado_665860" data-name="Trazado 665860" d="M82.33,282.18a1.92,1.92,0,0,1-.12.71,6,6,0,0,1-.37.66l-6.76,10.92a.58.58,0,0,1-.1.13l-.08.06a.194.194,0,0,1-.25,0,.44.44,0,0,1-.1-.33v-4.21a1.75,1.75,0,0,1,.19-.87c.13-.23.24-.42.34-.57l3-4.56-3-1.13a1.26,1.26,0,0,1-.34-.18c-.13-.09-.19-.31-.19-.65v-4.22a1,1,0,0,1,.1-.45.63.63,0,0,1,.25-.3h.18l6.76,3.12a.683.683,0,0,1,.49.81Z" fill="#fff"/>
        </g>
      </g>
      <g id="freepik--text-box--inject-53">
        <g id="freepik----inject-53-2" data-name="freepik----inject-53">
          <g id="freepik--speech-bubble--inject-53">
            <g id="freepik--speach-bubble--inject-53-2" data-name="freepik--speach-bubble--inject-53">
              <path id="Trazado_665861" data-name="Trazado 665861" d="M70.51,191.24,49.37,203.43a1.14,1.14,0,0,0-.53.9v11.81a1.14,1.14,0,0,0,.53.9l2.09,1.19a1.18,1.18,0,0,0,1,0L73.66,206a1.18,1.18,0,0,0,.52-.91v-11.8a1.14,1.14,0,0,0-.53-.9l-2.08-1.19a1.23,1.23,0,0,0-1.06.04Z" fill="#88b1d1"/>
              <path id="Trazado_665862" data-name="Trazado 665862" d="M70.51,191.24,49.37,203.43a1.14,1.14,0,0,0-.53.9v11.81a1.14,1.14,0,0,0,.53.9l2.09,1.19a1.18,1.18,0,0,0,1,0L73.66,206a1.18,1.18,0,0,0,.52-.91v-11.8a1.14,1.14,0,0,0-.53-.9l-2.08-1.19a1.23,1.23,0,0,0-1.06.04Z" opacity="0.4"/>
              <path id="Trazado_665863" data-name="Trazado 665863" d="M74.17,193.23c0-.26-.25-.35-.52-.2L52.51,205.21a1.07,1.07,0,0,0-.37.39L49,203.8a1,1,0,0,1,.36-.38L70.5,191.24a1.2,1.2,0,0,1,1.06,0l2.08,1.19A1.11,1.11,0,0,1,74.17,193.23Z" fill="#88b1d1"/>
              <path id="Trazado_665864" data-name="Trazado 665864" d="M73.66,193,52.51,205.21a1.14,1.14,0,0,0-.52.91v11.8c0,.33.23.47.52.3L73.66,206a1.15,1.15,0,0,0,.52-.91v-11.8C74.18,193,74,192.86,73.66,193Z" fill="#88b1d1"/>
              <g id="Grupo_895367" data-name="Grupo 895367" opacity="0.2">
                <path id="Trazado_665865" data-name="Trazado 665865" d="M73.66,193,52.51,205.21a1.14,1.14,0,0,0-.52.91v11.8c0,.33.23.47.52.3L73.66,206a1.15,1.15,0,0,0,.52-.91v-11.8C74.18,193,74,192.86,73.66,193Z"/>
              </g>
            </g>
          </g>
        </g>
      </g>
      <g id="freepik--text-box--inject-53-2" data-name="freepik--text-box--inject-53">
        <g id="freepik----inject-53-3" data-name="freepik----inject-53">
          <g id="freepik--speech-bubble--inject-53-2" data-name="freepik--speech-bubble--inject-53">
            <g id="freepik--speach-bubble--inject-53-3" data-name="freepik--speach-bubble--inject-53">
              <path id="Trazado_665869" data-name="Trazado 665869" d="M70.51,215.77,49.37,228a1.18,1.18,0,0,0-.53.91v11.8a1.16,1.16,0,0,0,.53.91l2.09,1.18a1.14,1.14,0,0,0,1,0l21.15-12.18a1.2,1.2,0,0,0,.52-.91v-11.8a1.16,1.16,0,0,0-.53-.91l-2.08-1.18a1.2,1.2,0,0,0-1.01-.05Z" fill="#88b1d1"/>
              <path id="Trazado_665870" data-name="Trazado 665870" d="M70.51,215.77,49.37,228a1.18,1.18,0,0,0-.53.91v11.8a1.16,1.16,0,0,0,.53.91l2.09,1.18a1.14,1.14,0,0,0,1,0l21.15-12.18a1.2,1.2,0,0,0,.52-.91v-11.8a1.16,1.16,0,0,0-.53-.91l-2.08-1.18a1.2,1.2,0,0,0-1.01-.05Z" opacity="0.4"/>
              <path id="Trazado_665871" data-name="Trazado 665871" d="M74.17,217.76c0-.26-.25-.36-.52-.21L52.51,229.74a1.07,1.07,0,0,0-.37.39L49,228.33a1,1,0,0,1,.36-.38L70.5,215.77a1.17,1.17,0,0,1,1.06,0L73.65,217a1.12,1.12,0,0,1,.52.76Z" fill="#88b1d1"/>
              <path id="Trazado_665872" data-name="Trazado 665872" d="M73.66,217.55,52.51,229.74a1.13,1.13,0,0,0-.52.9v11.81c0,.33.23.47.52.3l21.15-12.18a1.17,1.17,0,0,0,.52-.91v-11.8C74.18,217.52,74,217.39,73.66,217.55Z" fill="#88b1d1"/>
              <g id="Grupo_895368" data-name="Grupo 895368" opacity="0.2">
                <path id="Trazado_665873" data-name="Trazado 665873" d="M73.66,217.55,52.51,229.74a1.13,1.13,0,0,0-.52.9v11.81c0,.33.23.47.52.3l21.15-12.18a1.17,1.17,0,0,0,.52-.91v-11.8C74.18,217.52,74,217.39,73.66,217.55Z"/>
              </g>
            </g>
          </g>
        </g>
      </g>
      <g id="freepik--text-box--inject-53-3" data-name="freepik--text-box--inject-53">
        <g id="freepik----inject-53-4" data-name="freepik----inject-53">
          <g id="freepik--speech-bubble--inject-53-3" data-name="freepik--speech-bubble--inject-53">
            <g id="freepik--speach-bubble--inject-53-4" data-name="freepik--speach-bubble--inject-53">
              <path id="Trazado_665878" data-name="Trazado 665878" d="M70.51,240.3,49.37,252.48a1.16,1.16,0,0,0-.53.91v11.8a1.16,1.16,0,0,0,.53.91l2.09,1.18a1.18,1.18,0,0,0,1,0l21.2-12.18a1.2,1.2,0,0,0,.52-.91v-11.8a1.16,1.16,0,0,0-.53-.91l-2.08-1.18a1.17,1.17,0,0,0-1.06,0Z" fill="#88b1d1"/>
              <path id="Trazado_665879" data-name="Trazado 665879" d="M70.51,240.3,49.37,252.48a1.16,1.16,0,0,0-.53.91v11.8a1.16,1.16,0,0,0,.53.91l2.09,1.18a1.18,1.18,0,0,0,1,0l21.2-12.18a1.2,1.2,0,0,0,.52-.91v-11.8a1.16,1.16,0,0,0-.53-.91l-2.08-1.18a1.17,1.17,0,0,0-1.06,0Z" opacity="0.4"/>
              <path id="Trazado_665880" data-name="Trazado 665880" d="M74.17,242.29c0-.26-.25-.36-.52-.21L52.51,254.26a1.2,1.2,0,0,0-.37.4L49,252.85a1.06,1.06,0,0,1,.36-.37L70.51,240.3a1.2,1.2,0,0,1,1.06,0l2.08,1.19a1.12,1.12,0,0,1,.52.8Z" fill="#88b1d1"/>
              <path id="Trazado_665881" data-name="Trazado 665881" d="M73.66,242.08,52.51,254.26a1.17,1.17,0,0,0-.52.91V267c0,.34.23.47.52.31L73.66,255.1a1.17,1.17,0,0,0,.52-.91v-11.8C74.18,242.05,74,241.92,73.66,242.08Z" fill="#88b1d1"/>
              <g id="Grupo_895369" data-name="Grupo 895369" opacity="0.2">
                <path id="Trazado_665882" data-name="Trazado 665882" d="M73.66,242.08,52.51,254.26a1.17,1.17,0,0,0-.52.91V267c0,.34.23.47.52.31L73.66,255.1a1.17,1.17,0,0,0,.52-.91v-11.8C74.18,242.05,74,241.92,73.66,242.08Z"/>
              </g>
            </g>
          </g>
        </g>
      </g>
    </g>
    <g id="freepik--speech-bubbles--inject-53" transform="translate(-12327.187 -12246.031)">
      <g id="freepik--chart-bubble--inject-53">
        <g id="freepik--speech-bubble--inject-53-4" data-name="freepik--speech-bubble--inject-53">
          <path id="Trazado_665886" data-name="Trazado 665886" d="M68.19,112.83a1.63,1.63,0,0,1-.81-.21,2,2,0,0,1-.88-1.85V75.86A5.39,5.39,0,0,1,69,71.59L99.45,54a1.82,1.82,0,0,1,2.93,1.69v34.9a5.38,5.38,0,0,1-2.47,4.27l-10,5.8L86.82,111a1.06,1.06,0,0,1-1,.77,1.09,1.09,0,0,1-1-.65l-2.62-6-12.77,7.37a2.42,2.42,0,0,1-1.24.34Zm31.72-58L69.42,72.39a4.53,4.53,0,0,0-2,3.47v34.91a1.17,1.17,0,0,0,.42,1,1.14,1.14,0,0,0,1.12-.16l13.67-7.89,3,7a.14.14,0,0,0,.15.09.17.17,0,0,0,.13-.11L89.09,100l10.36-6a4.48,4.48,0,0,0,2-3.47V55.68a1.17,1.17,0,0,0-.42-1,1.19,1.19,0,0,0-1.12.16Z" fill="#88b1d1"/>
        </g>
        <path id="Trazado_665887" data-name="Trazado 665887" d="M84.44,70.42a6.47,6.47,0,0,1,5.63-.8L84.44,83.23Z" fill="#455a64"/>
        <path id="Trazado_665888" data-name="Trazado 665888" d="M78.8,76.13a17.49,17.49,0,0,1,5.64-5.71V83.23Z" fill="#88b1d1"/>
        <path id="Trazado_665889" data-name="Trazado 665889" d="M75.31,84.54a25.63,25.63,0,0,1,3.49-8.41l5.64,7.1Z" fill="#88b1d1"/>
        <path id="Trazado_665890" data-name="Trazado 665890" d="M90.07,69.62A6.23,6.23,0,0,1,93.57,74l-9.13,9.23Z" fill="#455a64"/>
        <path id="Trazado_665891" data-name="Trazado 665891" d="M75.31,92.45a13.24,13.24,0,0,1-.48-3.68,20,20,0,0,1,.48-4.23l9.13-1.31Z" fill="#88b1d1"/>
        <path id="Trazado_665892" data-name="Trazado 665892" d="M93.57,81.91a25.65,25.65,0,0,1-3.5,8.41l-5.63-7.09Z" fill="#88b1d1"/>
        <path id="Trazado_665893" data-name="Trazado 665893" d="M84.44,96a6.46,6.46,0,0,1-5.64.8l5.64-13.6Z" fill="#88b1d1"/>
        <path id="Trazado_665894" data-name="Trazado 665894" d="M75.31,92.45l9.13-9.22L78.8,96.83A6.22,6.22,0,0,1,75.31,92.45Z" fill="#88b1d1"/>
        <path id="Trazado_665895" data-name="Trazado 665895" d="M78.8,76.13a25.63,25.63,0,0,0-3.49,8.41,20,20,0,0,0-.48,4.23,13.24,13.24,0,0,0,.48,3.68,6.22,6.22,0,0,0,3.49,4.38l5.64-13.6Z" fill="#fff" opacity="0.5"/>
        <path id="Trazado_665896" data-name="Trazado 665896" d="M93.57,74A13.64,13.64,0,0,1,94,77.68a20.611,20.611,0,0,1-.47,4.23L84.4,83.23Z" fill="#88b1d1"/>
        <path id="Trazado_665897" data-name="Trazado 665897" d="M90.07,90.32A17.47,17.47,0,0,1,84.44,96V83.23Z" fill="#88b1d1"/>
        <path id="Trazado_665898" data-name="Trazado 665898" d="M93.57,74l-9.13,9.23L78.8,96.83a6.46,6.46,0,0,0,5.64-.8,17.47,17.47,0,0,0,5.63-5.71,25.65,25.65,0,0,0,3.5-8.41A20.61,20.61,0,0,0,94,77.68,13.64,13.64,0,0,0,93.57,74Z" opacity="0.2"/>
      </g>
      <g id="freepik--chart-bubble--inject-53-2" data-name="freepik--chart-bubble--inject-53">
        <g id="freepik--speech-bubble--inject-53-5" data-name="freepik--speech-bubble--inject-53">
          <path id="Trazado_665899" data-name="Trazado 665899" d="M113.84,86.48a1.52,1.52,0,0,1-.81-.22,2,2,0,0,1-.89-1.84V49.51a5.36,5.36,0,0,1,2.47-4.27l30.48-17.6A1.81,1.81,0,0,1,148,29.33V64.24a5.37,5.37,0,0,1-2.47,4.27l-10,5.79-3,10.37a1.07,1.07,0,0,1-2,.12l-2.62-6.05-12.77,7.37a2.55,2.55,0,0,1-1.3.37Zm31.71-58L115.07,46a4.51,4.51,0,0,0-2,3.47V84.42a.92.92,0,0,0,1.55.89l13.66-7.89,3,7a.13.13,0,0,0,.15.08.12.12,0,0,0,.13-.1l3.15-10.72,10.36-6a4.51,4.51,0,0,0,2-3.47V29.33a.92.92,0,0,0-1.55-.89Z" fill="#88b1d1"/>
        </g>
        <path id="Trazado_665900" data-name="Trazado 665900" d="M130.08,44.07a6.46,6.46,0,0,1,5.64-.8l-5.64,13.6Z" fill="#455a64"/>
        <path id="Trazado_665901" data-name="Trazado 665901" d="M124.44,49.78a17.59,17.59,0,0,1,5.64-5.71v12.8Z" fill="#88b1d1"/>
        <path id="Trazado_665902" data-name="Trazado 665902" d="M121,58.19a25.63,25.63,0,0,1,3.49-8.41l5.64,7.09Z" fill="#88b1d1"/>
        <path id="Trazado_665903" data-name="Trazado 665903" d="M124.44,49.78A25.63,25.63,0,0,0,121,58.19l9.13-1.32V44.07a17.59,17.59,0,0,0-5.69,5.71Z" fill="#fff" opacity="0.5"/>
        <path id="Trazado_665904" data-name="Trazado 665904" d="M135.72,43.27a6.22,6.22,0,0,1,3.49,4.38l-9.13,9.22Z" fill="#455a64"/>
        <path id="Trazado_665905" data-name="Trazado 665905" d="M121,66.1a13.64,13.64,0,0,1-.47-3.68,20.61,20.61,0,0,1,.47-4.23l9.13-1.32Z" fill="#88b1d1"/>
        <path id="Trazado_665906" data-name="Trazado 665906" d="M139.21,55.56A25.63,25.63,0,0,1,135.72,64l-5.64-7.1Z" fill="#88b1d1"/>
        <path id="Trazado_665907" data-name="Trazado 665907" d="M130.08,69.68a6.46,6.46,0,0,1-5.64.8l5.64-13.61Z" fill="#88b1d1"/>
        <path id="Trazado_665908" data-name="Trazado 665908" d="M121,66.1l9.13-9.23-5.64,13.61A6.22,6.22,0,0,1,121,66.1Z" fill="#88b1d1"/>
        <path id="Trazado_665909" data-name="Trazado 665909" d="M139.21,47.65a13.641,13.641,0,0,1,.47,3.68,20.61,20.61,0,0,1-.47,4.23l-9.13,1.31Z" fill="#455a64"/>
        <path id="Trazado_665910" data-name="Trazado 665910" d="M135.72,64a17.59,17.59,0,0,1-5.64,5.71V56.87Z" fill="#88b1d1"/>
        <path id="Trazado_665911" data-name="Trazado 665911" d="M130.08,56.87l-5.64,13.61a6.46,6.46,0,0,0,5.64-.8A17.59,17.59,0,0,0,135.72,64a25.63,25.63,0,0,0,3.49-8.41Z" opacity="0.2"/>
      </g>
      <g id="freepik--speech-bubble--inject-53-6" data-name="freepik--speech-bubble--inject-53">
        <g id="freepik--speech-bubble--inject-53-7" data-name="freepik--speech-bubble--inject-53">
          <path id="Trazado_665912" data-name="Trazado 665912" d="M303.69,101.58,286.18,111.7a1.4,1.4,0,0,0-.62,1.09v21.4a1.34,1.34,0,0,0,.63,1.07l2.48,1.42a1.43,1.43,0,0,0,1.26,0l17.51-10.13a1.38,1.38,0,0,0,.62-1.08v-21.4a1.37,1.37,0,0,0-.63-1.08L305,101.57A1.4,1.4,0,0,0,303.69,101.58Z" fill="#f28f8f"/>
          <path id="Trazado_665913" data-name="Trazado 665913" d="M289.93,136.67a1.46,1.46,0,0,1-1.26,0l-2.48-1.42a1.34,1.34,0,0,1-.63-1.07v-21.4a1.3,1.3,0,0,1,.2-.64l3.73,2.14c-.12.2-.19.42-.19.08v21.4C289.3,136.67,289.56,136.88,289.93,136.67Z" fill="#f28f8f"/>
          <path id="Trazado_665914" data-name="Trazado 665914" d="M308.05,104c-.05-.32-.3-.43-.61-.25l-17.51,10.13a1.3,1.3,0,0,0-.44.46l-3.74-2.14a1.36,1.36,0,0,1,.44-.45l17.51-10.13a1.38,1.38,0,0,1,1.25,0l2.48,1.41a1.35,1.35,0,0,1,.62.97Z" fill="#fff" opacity="0.4"/>
          <path id="Trazado_665915" data-name="Trazado 665915" d="M283.85,128.66c-.4-.24-3.39-1.92-3.48-2a.58.58,0,0,1-.13-.89l5.32-6.1,3.74,2.15-5.56,5.94a.59.59,0,0,0,.11.9Z" fill="#ffa8a7"/>
          <path id="Trazado_665916" data-name="Trazado 665916" d="M283.85,128.66c-.4-.24-3.39-1.92-3.48-2a.58.58,0,0,1-.13-.89l5.32-6.1,3.74,2.15-5.56,5.94a.59.59,0,0,0,.11.9Z" fill="#fff" opacity="0.4"/>
          <path id="Trazado_665917" data-name="Trazado 665917" d="M307.44,103.7l-17.51,10.13a1.37,1.37,0,0,0-.63,1.08v6.93l-5.56,5.94a.56.56,0,0,0,.36,1l5.2-.38h0v7.95c0,.4.28.56.63.36l17.51-10.13a1.38,1.38,0,0,0,.62-1.08V104.1C308.06,103.66,307.78,103.5,307.44,103.7Z" fill="#ffa8a7"/>
        </g>
      </g>
      <g id="freepik--speech-bubble--inject-53-8" data-name="freepik--speech-bubble--inject-53">
        <g id="freepik--speech-bubble--inject-53-9" data-name="freepik--speech-bubble--inject-53">
          <path id="Trazado_665918" data-name="Trazado 665918" d="M289.93,103.12a1.43,1.43,0,0,1-1.26,0l-2.48-1.42c-.35-.19-.63-.67-.63-.53V79.78a2.08,2.08,0,0,1,.2-1.18l3.73,2.15a2,2,0,0,0-.19,1.15v21.4C289.3,103.13,289.56,103.34,289.93,103.12Z" fill="#263238"/>
          <path id="Trazado_665919" data-name="Trazado 665919" d="M308.05,70.4c-.05-.32-.3-.43-.61-.25L289.93,80.28a1.25,1.25,0,0,0-.44.47l-3.74-2.15a1.23,1.23,0,0,1,.44-.44L303.7,68a1.38,1.38,0,0,1,1.3,0l2.48,1.41A1.37,1.37,0,0,1,308.05,70.4Z" fill="#455a64"/>
          <path id="Trazado_665920" data-name="Trazado 665920" d="M283.85,95.11l-3.48-2a.58.58,0,0,1-.13-.89l5.32-6.1,3.74,2.15-5.56,5.94a.59.59,0,0,0,.11.9Z" fill="#455a64"/>
          <path id="Trazado_665921" data-name="Trazado 665921" d="M307.44,70.15,289.93,80.28a1.37,1.37,0,0,0-.63,1.08v6.93l-5.56,5.94a.56.56,0,0,0,.36,1l5.2-.38h0v8c0,.4.28.56.63.36L307.44,93a1.38,1.38,0,0,0,.62-1.08V70.51C308.06,70.11,307.78,70,307.44,70.15Z" fill="#37474f"/>
        </g>
        <path id="freepik--Bug--inject-53" d="M305.14,85.25l-.41-3.07a.38.38,0,0,0-.23-.29.35.35,0,0,0-.14,0,.33.33,0,0,0-.23.09l-1,.83a4.76,4.76,0,0,0-.62-1.46h0L303,80l.68-2.4a.35.35,0,0,0-.25-.45h-.1a.38.38,0,0,0-.36.27l-.66,2.33-.39.93a2.109,2.109,0,0,0-.35-.26,2.32,2.32,0,0,0-1.18-.35l.63-2.42a.37.37,0,0,0-.27-.45h-.09a.37.37,0,0,0-.36.27l-.69,2.7a3.481,3.481,0,0,0-.82.32c-.19.11-.39.23-.57.36l-.45-1.64a.36.36,0,0,0-.35-.27h-.1a.37.37,0,0,0-.26.45l.53,2A9.79,9.79,0,0,0,295.72,84l-.16-.26L295,82.08a.38.38,0,0,0-.35-.26h-.11a.37.37,0,0,0-.24.47l.55,1.73.47.72a14.171,14.171,0,0,0-.86,2.7h-.08l-1.28.33a.38.38,0,0,0-.27.3l-.62,3.61a.38.38,0,0,0,.3.43h.06a.38.38,0,0,0,.37-.3l.58-3.38.81-.22a10.256,10.256,0,0,0-.12,1.34,8,8,0,0,0,.33,2.7.39.39,0,0,0-.1.08l-1.19,1.44a.39.39,0,0,0,0,.4l1.15,2.32a.36.36,0,0,0,.33.21.35.35,0,0,0,.17,0,.36.36,0,0,0,.16-.49l-1-2.12.88-1A3.16,3.16,0,0,0,296,94.27a2.42,2.42,0,0,0,1.26.35,3.15,3.15,0,0,0,1.52-.42h0c1.62-.89,3.08-3,3.89-5.48h0l.9.15-1.18,3.24a.37.37,0,0,0,.22.47.3.3,0,0,0,.13,0,.38.38,0,0,0,.35-.24l1.33-3.66a.34.34,0,0,0,0-.31.37.37,0,0,0-.26-.18L302.88,88a12.421,12.421,0,0,0,.45-2.88,9.429,9.429,0,0,0-.08-1.53h0l.79-.64.33,2.41a.36.36,0,0,0,.36.32h.05a.35.35,0,0,0,.25-.14A.44.44,0,0,0,305.14,85.25Zm-6-4.1a2.48,2.48,0,0,1,1.17-.33,1.55,1.55,0,0,1,.87.25,1.65,1.65,0,0,1,.41.34,7.65,7.65,0,0,1-2.93,3.31,2.82,2.82,0,0,1-1.32.37,1.63,1.63,0,0,1-1.14-.44,7.74,7.74,0,0,1,2.96-3.5ZM295,89.6a12.4,12.4,0,0,1,.92-4.24,2.38,2.38,0,0,0,1.45.48,3.09,3.09,0,0,0,1.12-.22l-.25,8a2.45,2.45,0,0,1-1,.23,1.68,1.68,0,0,1-.87-.24C295.43,93.06,294.91,91.56,295,89.6Zm4,3.59.25-7.93a8.33,8.33,0,0,0,2.86-3.15,6.56,6.56,0,0,1,.51,3c-.13,3.17-1.7,6.61-3.62,8.08Z" fill="#88b1d1"/>
      </g>
      <g id="freepik--speech-bubble--inject-53-10" data-name="freepik--speech-bubble--inject-53">
        <g id="freepik--speech-bubble--inject-53-11" data-name="freepik--speech-bubble--inject-53">
          <path id="Trazado_665922" data-name="Trazado 665922" d="M303.69,34.48,286.18,44.61c-.34.2-.62.68-.62,1.62v21.4c0-.14.28.34.63.54l2.48,1.41a1.43,1.43,0,0,0,1.26,0l17.51-10.13a1.4,1.4,0,0,0,.62-1.09V37a1.35,1.35,0,0,0-.63-1.07L305,34.47A1.43,1.43,0,0,0,303.69,34.48Z" fill="#88b1d1"/>
          <path id="Trazado_665923" data-name="Trazado 665923" d="M289.93,69.58a1.43,1.43,0,0,1-1.26,0l-2.48-1.41c-.35-.2-.63-.68-.63-.54V46.23a2.1,2.1,0,0,1,.2-1.18l3.73,2.15c-.12.19-.19.42-.19.08v21.4C289.3,69.58,289.56,69.79,289.93,69.58Z" opacity="0.2"/>
          <path id="Trazado_665924" data-name="Trazado 665924" d="M308.05,36.85c-.05-.31-.3-.43-.61-.25L289.93,46.73a1.25,1.25,0,0,0-.44.47l-3.74-2.15a1.32,1.32,0,0,1,.44-.44L303.7,34.48a1.41,1.41,0,0,1,1.25,0l2.48,1.42A1.35,1.35,0,0,1,308.05,36.85Z" fill="#fff" opacity="0.4"/>
          <path id="Trazado_665925" data-name="Trazado 665925" d="M283.85,61.56l-3.48-2a.59.59,0,0,1-.13-.9l5.32-6.09,3.74,2.14-5.56,5.95a.58.58,0,0,0,.11.9Z" fill="#88b1d1"/>
          <path id="Trazado_665926" data-name="Trazado 665926" d="M283.85,61.56l-3.48-2a.59.59,0,0,1-.13-.9l5.32-6.09,3.74,2.14-5.56,5.95a.58.58,0,0,0,.11.9Z" fill="#fff" opacity="0.4"/>
          <path id="Trazado_665927" data-name="Trazado 665927" d="M307.44,36.6,289.93,46.73a1.39,1.39,0,0,0-.63,1.09v6.93l-5.56,5.93a.56.56,0,0,0,.36,1l5.2-.38h0v7.95c0,.4.28.56.63.37l17.51-10.13a1.4,1.4,0,0,0,.62-1.09V37C308.06,36.57,307.78,36.4,307.44,36.6Z" fill="#88b1d1"/>
        </g>
        <path id="freepik--Check--inject-53" d="M304.19,42.58a1.56,1.56,0,0,0-2,.83l-5.88,14L294.87,56a1.55,1.55,0,0,0-2.2,0,1.57,1.57,0,0,0,0,2.2l3,2.95a1.56,1.56,0,0,0,2.52-.51L305,44.62a1.56,1.56,0,0,0-.81-2.04Z" fill="#fafafa"/>
        <path id="freepik--Check--inject-53-2" data-name="freepik--Check--inject-53" d="M304.19,42.58a1.56,1.56,0,0,0-2,.83l-5.88,14L294.87,56a1.55,1.55,0,0,0-2.2,0,1.57,1.57,0,0,0,0,2.2l3,2.95a1.56,1.56,0,0,0,2.52-.51L305,44.62a1.56,1.56,0,0,0-.81-2.04Z" transform="translate(0 67)" fill="#fafafa"/>
      </g>
    </g>
  </g>
</svg>
